<?xml version="1.0" encoding="UTF-8"?>
<svg version="1.1" xmlns="http://www.w3.org/2000/svg" width="580" height="430">
<path d="M0 0 C2.84575526 0.94858509 5.70140405 1.865523 8.55688477 2.78433228 C9.98403262 3.2437838 11.41067388 3.70481203 12.83679199 4.16744995 C18.40595729 5.97052025 24.00639303 7.62808 29.64678955 9.19476318 C37.80628155 11.47988375 45.91954656 13.90171508 54.02178955 16.38226318 C55.17276123 16.73240479 56.32373291 17.08254639 57.50958252 17.44329834 C58.57064209 17.76991455 59.63170166 18.09653076 60.72491455 18.43304443 C61.67527588 18.72477539 62.62563721 19.01650635 63.60479736 19.31707764 C65.77178955 20.06976318 65.77178955 20.06976318 66.77178955 21.06976318 C66.88126054 22.40157784 66.92299833 23.73905132 66.93673706 25.07528687 C66.94797104 25.93847031 66.95920502 26.80165375 66.97077942 27.69099426 C66.97810593 28.64566086 66.98543243 29.60032745 66.99298096 30.58392334 C67.00448685 31.58409988 67.01599274 32.58427643 67.02784729 33.61476135 C67.06473974 36.94608424 67.09428286 40.27742596 67.12335205 43.60882568 C67.14647055 45.92559066 67.16986092 48.24235294 67.19351196 50.55911255 C67.24208802 55.43340616 67.28698027 60.30771698 67.32940674 65.18206787 C67.38381825 71.39436843 67.44773693 77.60652692 67.51458168 83.81870461 C67.56501195 88.61457787 67.60998917 93.41049108 67.65342331 98.20643234 C67.67483232 100.49390714 67.69795292 102.78136663 67.72288895 105.06880569 C67.85138866 117.1201944 67.87086963 129.05913344 66.77178955 141.06976318 C62.23677341 143.09016179 57.80433356 144.75655398 53.02178955 146.12835693 C52.38257568 146.31371506 51.74336182 146.49907318 51.08477783 146.69004822 C48.98154291 147.29964709 46.87671864 147.90354268 44.77178955 148.50726318 C34.88128983 151.35942893 25.02042753 154.27847285 15.20928955 157.39398193 C13.45149469 157.94880671 11.69368232 158.503576 9.93585205 159.05828857 C7.37279847 159.86775465 4.81172666 160.68179999 2.25518799 161.5116272 C-10.19480095 165.55098509 -19.53465323 167.88160672 -32.22821045 163.38226318 C-33.8900435 162.82480347 -35.55283086 162.27018171 -37.2164917 161.71820068 C-38.05003174 161.43944092 -38.88357178 161.16068115 -39.74237061 160.87347412 C-43.59997458 159.62625037 -47.50215058 158.56293916 -51.41571045 157.50726318 C-58.18593986 155.6617639 -64.89102333 153.65824171 -71.57977295 151.53460693 C-75.35909957 150.33647266 -79.14792347 149.1710923 -82.93914795 148.01116943 C-84.70935303 147.46940063 -84.70935303 147.46940063 -86.51531982 146.91668701 C-88.88344679 146.19268086 -91.25192962 145.46983756 -93.62078857 144.74822998 C-94.70553467 144.41605469 -95.79028076 144.08387939 -96.90789795 143.74163818 C-97.88484619 143.44354248 -98.86179443 143.14544678 -99.86834717 142.83831787 C-102.22821045 142.06976318 -102.22821045 142.06976318 -104.22821045 141.06976318 C-104.25506983 138.92399682 -104.27454133 136.77813673 -104.29071045 134.63226318 C-104.30231201 133.43730225 -104.31391357 132.24234131 -104.3258667 131.01116943 C-104.22821045 128.06976318 -104.22821045 128.06976318 -103.22821045 127.06976318 C-103.12997049 125.59327443 -103.09847526 124.11200901 -103.10321045 122.63226318 C-103.09934326 121.42763428 -103.09934326 121.42763428 -103.09539795 120.19866943 C-103.09242719 118.01578387 -103.09242719 118.01578387 -104.22821045 116.06976318 C-104.32168537 113.07939595 -104.35393778 110.1124584 -104.34173584 107.12200928 C-104.34188187 106.19512802 -104.34202789 105.26824677 -104.34217834 104.3132782 C-104.34147991 101.23989548 -104.33369072 98.16657286 -104.3258667 95.09320068 C-104.32400227 92.966136 -104.32257849 90.83907088 -104.32157898 88.71200562 C-104.31775573 83.10600606 -104.30792707 77.50003231 -104.296875 71.89404297 C-104.28665675 66.17657826 -104.28208047 60.45910939 -104.27703857 54.74163818 C-104.26630465 43.5176685 -104.24923052 32.29371798 -104.22821045 21.06976318 C-100.86284905 19.94473797 -97.49710186 18.82087122 -94.13128662 17.69720459 C-93.18372246 17.38042252 -92.23615829 17.06364044 -91.25988007 16.73725891 C-84.71242616 14.55225419 -78.15133436 12.43157982 -71.54071045 10.44476318 C-70.587771 10.15609375 -69.63483154 9.86742432 -68.65301514 9.57000732 C-62.06579213 7.5873435 -55.45400349 5.71207102 -48.8114624 3.92401123 C-44.91578345 2.86307348 -41.07346766 1.70962525 -37.24383545 0.42913818 C-35.98748291 0.01256958 -35.98748291 0.01256958 -34.70574951 -0.41241455 C-33.1146901 -0.94564209 -31.52762558 -1.49102925 -29.94598389 -2.05157471 C-19.17085112 -5.65633346 -10.54775103 -3.51591701 0 0 Z " fill="#F4F1EE" transform="translate(133.22821044921875,133.93023681640625)"/>
<path d="M0 0 C3.13736983 0.46913259 6.27521846 0.93494229 9.41317749 1.40011597 C11.48553478 1.70756327 13.55766123 2.01657078 15.62954712 2.32717896 C23.96487214 3.56929 32.31412661 4.67882379 40.67677307 5.72053528 C41.57290817 5.83362534 42.46904327 5.94671539 43.39233398 6.06323242 C44.56819313 6.20869759 44.56819313 6.20869759 45.76780701 6.35710144 C47.84766481 6.67381999 49.89648085 7.17724521 51.9375 7.6875 C51.9375 30.1275 51.9375 52.5675 51.9375 75.6875 C48.96882364 77.17183818 45.81190495 77.26196816 42.55078125 77.625 C41.81554733 77.70999756 41.08031342 77.79499512 40.32279968 77.88256836 C37.96559194 78.15443325 35.60783833 78.42116451 33.25 78.6875 C30.91013578 78.95480277 28.57039952 79.22318094 26.23075867 79.49243164 C24.77503137 79.65963479 23.31915682 79.82556266 21.8631134 79.98999023 C17.53865762 80.48282118 13.24928386 81.07153088 8.9375 81.6875 C8.9375 59.5775 8.9375 37.4675 8.9375 14.6875 C4.6475 14.3575 0.3575 14.0275 -4.0625 13.6875 C-8.0225 13.3575 -11.9825 13.0275 -16.0625 12.6875 C-16.0625 36.4475 -16.0625 60.2075 -16.0625 84.6875 C-30.62880815 87.11521803 -42.19705499 86.55942511 -56.5078125 84.48046875 C-61.37200799 83.77399828 -66.24070417 83.17262976 -71.125 82.625 C-76.88151106 81.96945663 -82.59963691 81.17486737 -88.3203125 80.2578125 C-94.38481612 79.33357708 -100.46750372 78.5401479 -106.54956055 77.74047852 C-107.46261963 77.61858154 -108.37567871 77.49668457 -109.31640625 77.37109375 C-110.13439697 77.26337646 -110.9523877 77.15565918 -111.79516602 77.04467773 C-113.9066593 76.7120499 -115.98878888 76.20592778 -118.0625 75.6875 C-118.0625 53.2475 -118.0625 30.8075 -118.0625 7.6875 C-107.28787267 5.89172878 -96.55752096 4.11983212 -85.7421875 2.64453125 C-84.47384064 2.47120773 -83.20549377 2.29788422 -81.89871216 2.11930847 C-79.24902175 1.75833133 -76.59897658 1.40008519 -73.94873047 1.04321289 C-71.27010107 0.68192192 -68.59248228 0.31416651 -65.91552734 -0.05932617 C-42.78239159 -3.2827877 -23.04607581 -3.52203275 0 0 Z " fill="#3D3C3B" transform="translate(148.0625,173.3125)"/>
<path d="M0 0 C3.34271599 0.14532413 6.68516043 0.29619327 10.02758789 0.44799805 C11.43499111 0.50908375 11.43499111 0.50908375 12.87082672 0.5714035 C20.47299126 0.92088184 27.90528354 1.70802404 35.4375 2.8125 C37.98562607 3.16963502 40.5338049 3.5263937 43.08203125 3.8828125 C44.37189941 4.06618164 45.66176758 4.24955078 46.99072266 4.43847656 C51.14015768 5.02434817 55.29401435 5.57395402 59.44921875 6.1171875 C60.1381572 6.20749741 60.82709564 6.29780731 61.53691101 6.39085388 C64.85962899 6.82620278 68.18253189 7.2600721 71.50561523 7.69262695 C72.69227783 7.84948975 73.87894043 8.00635254 75.1015625 8.16796875 C76.66898193 8.37329224 76.66898193 8.37329224 78.26806641 8.58276367 C81 9 81 9 85 10 C85 32.44 85 54.88 85 78 C82.03132364 79.48433818 78.87440495 79.57446816 75.61328125 79.9375 C74.87804733 80.02249756 74.14281342 80.10749512 73.38529968 80.19506836 C71.02809194 80.46693325 68.67033833 80.73366451 66.3125 81 C63.97263578 81.26730277 61.63289952 81.53568094 59.29325867 81.80493164 C57.83753137 81.97213479 56.38165682 82.13806266 54.9256134 82.30249023 C50.60115762 82.79532118 46.31178386 83.38403088 42 84 C42 61.89 42 39.78 42 17 C37.71 16.67 33.42 16.34 29 16 C25.04 15.67 21.08 15.34 17 15 C17 38.76 17 62.52 17 87 C5 89 5 89 0 89 C-1.262928 85.211216 -1.08605671 81.70715255 -1.02172852 77.76489258 C-1.01212097 76.92564743 -1.00251343 76.08640228 -0.99261475 75.22172546 C-0.95961646 72.44590894 -0.91928721 69.67024939 -0.87890625 66.89453125 C-0.85460595 64.97068334 -0.83076234 63.0468296 -0.80735779 61.12297058 C-0.74450794 56.05780411 -0.67544378 50.99274058 -0.60510254 45.92767334 C-0.53442728 40.75977264 -0.46960547 35.59179893 -0.40429688 30.42382812 C-0.2752729 20.28247184 -0.13968641 10.14121463 0 0 Z " fill="#353430" transform="translate(115,171)"/>
<path d="M0 0 C8.64271821 1.25325326 17.1148876 2.80017837 25.625 4.75 C27.98827582 5.28257618 30.35155724 5.81512753 32.71484375 6.34765625 C35.14323279 6.89842154 37.57161819 7.44920284 40 8 C48.99340639 10.03053399 57.99191618 12.03558292 67 14 C67.84788086 14.18755859 68.69576172 14.37511719 69.56933594 14.56835938 C71.7306564 15.0414031 73.89495692 15.49398775 76.0625 15.9375 C77.18785156 16.17339844 78.31320313 16.40929687 79.47265625 16.65234375 C88.43296948 17.5354754 97.17496424 15.24979466 105.875 13.3125 C108.35933564 12.76935117 110.84371184 12.22638785 113.328125 11.68359375 C114.59462891 11.40499512 115.86113281 11.12639648 117.16601562 10.83935547 C123.31378843 9.4934536 129.46979367 8.18639974 135.625 6.875 C141.96221299 5.52292648 148.297848 4.16800261 154.6171875 2.734375 C155.4529834 2.54504395 156.2887793 2.35571289 157.14990234 2.16064453 C158.6589645 1.81669249 160.16718803 1.46902813 161.67431641 1.11669922 C164.91655051 0.37623334 167.64449518 0 171 0 C171 4.29 171 8.58 171 13 C166.46498386 15.02039861 162.03254401 16.68679079 157.25 18.05859375 C156.2911792 18.33663094 156.2911792 18.33663094 155.31298828 18.62028503 C153.20975336 19.22988391 151.10492909 19.83377949 149 20.4375 C139.10950028 23.28966574 129.24863798 26.20870967 119.4375 29.32421875 C117.67970514 29.87904353 115.92189277 30.43381282 114.1640625 30.98852539 C111.60100892 31.79799147 109.03993711 32.61203681 106.48339844 33.44186401 C94.03340949 37.4812219 84.69355722 39.81184353 72 35.3125 C70.33816695 34.75504029 68.67537959 34.20041852 67.01171875 33.6484375 C66.17817871 33.36967773 65.34463867 33.09091797 64.48583984 32.80371094 C60.62823587 31.55648718 56.72605986 30.49317598 52.8125 29.4375 C46.04227059 27.59200072 39.33718712 25.58847853 32.6484375 23.46484375 C28.86911087 22.26670948 25.08028698 21.10132911 21.2890625 19.94140625 C20.10892578 19.58022705 18.92878906 19.21904785 17.71289062 18.84692383 C15.34476366 18.12291767 12.97628083 17.40007437 10.60742188 16.6784668 C9.52267578 16.3462915 8.43792969 16.01411621 7.3203125 15.671875 C6.34336426 15.3737793 5.36641602 15.07568359 4.35986328 14.76855469 C2 14 2 14 0 13 C0 8.71 0 4.42 0 0 Z " fill="#B48149" transform="translate(29,262)"/>
<path d="M0 0 C2.84575526 0.94858509 5.70140405 1.865523 8.55688477 2.78433228 C9.98403262 3.2437838 11.41067388 3.70481203 12.83679199 4.16744995 C18.40595729 5.97052025 24.00639303 7.62808 29.64678955 9.19476318 C37.80628155 11.47988375 45.91954656 13.90171508 54.02178955 16.38226318 C55.17276123 16.73240479 56.32373291 17.08254639 57.50958252 17.44329834 C58.57064209 17.76991455 59.63170166 18.09653076 60.72491455 18.43304443 C61.67527588 18.72477539 62.62563721 19.01650635 63.60479736 19.31707764 C65.77178955 20.06976318 65.77178955 20.06976318 66.77178955 21.06976318 C66.84437901 23.25615772 66.85552738 25.44476707 66.83428955 27.63226318 C66.82526611 28.82980225 66.81624268 30.02734131 66.8069458 31.26116943 C66.78954346 32.65142334 66.78954346 32.65142334 66.77178955 34.06976318 C59.09895353 33.02284121 51.53392852 31.66879595 43.95928955 30.06976318 C43.17191406 29.90379639 42.38453857 29.73782959 41.57330322 29.5668335 C37.35441641 28.66332518 33.17063775 27.66803271 28.98573303 26.61624146 C22.31197777 24.96892649 15.59522504 23.50012987 8.88311768 22.01873779 C6.98123942 21.59568347 5.08081656 21.16603031 3.1819458 20.72967529 C-11.90597337 17.15226747 -11.90597337 17.15226747 -27.22821045 18.06976318 C-27.97222107 18.21521576 -28.71623169 18.36066833 -29.48278809 18.51052856 C-36.10979712 19.81864864 -42.69949569 21.28108879 -49.29071045 22.75726318 C-51.35020197 23.21225313 -53.4098548 23.66651352 -55.46966553 24.12005615 C-61.39149445 25.42632517 -67.31038759 26.74547558 -73.22821045 28.06976318 C-74.03713745 28.25077576 -74.84606445 28.43178833 -75.67950439 28.61828613 C-77.15526733 28.94866487 -78.6310025 29.27916767 -80.10670471 29.6098175 C-82.05326863 30.04591681 -83.99998878 30.48131863 -85.94671631 30.91668701 C-88.19841051 31.42172955 -90.44928067 31.93046546 -92.69915771 32.44354248 C-94.15793335 32.77285767 -94.15793335 32.77285767 -95.6461792 33.10882568 C-96.88017456 33.39040527 -96.88017456 33.39040527 -98.13909912 33.67767334 C-100.22821045 34.06976318 -100.22821045 34.06976318 -103.22821045 34.06976318 C-103.22821045 29.77976318 -103.22821045 25.48976318 -103.22821045 21.06976318 C-98.32377562 18.87876759 -93.44232821 17.09557718 -88.3024292 15.54632568 C-87.55596634 15.3182724 -86.80950348 15.09021912 -86.04042053 14.85525513 C-84.46353443 14.37442023 -82.88606398 13.89549795 -81.30804443 13.418396 C-78.95902893 12.70786615 -76.61204952 11.99092665 -74.26531982 11.27288818 C-65.67620253 8.65565266 -57.06055591 6.17183561 -48.40074158 3.79936218 C-42.17913831 2.08393714 -36.06300857 0.12111747 -29.9821167 -2.04156494 C-19.18484007 -5.64377595 -10.57195194 -3.52398398 0 0 Z " fill="#3E3D3A" transform="translate(133.22821044921875,133.93023681640625)"/>
<path d="M0 0 C1.23057129 0.23605957 2.46114258 0.47211914 3.72900391 0.71533203 C8.26852883 1.61071373 12.78993948 2.58564968 17.3125 3.5625 C18.97558049 3.91780576 20.63874939 4.27269789 22.30200195 4.62719727 C26.64929055 5.55533836 30.99503927 6.49049889 35.3404541 7.42736816 C38.8902307 8.19167725 42.44098095 8.95140909 45.99171448 9.71125793 C50.22417485 10.61753376 54.45587514 11.52733239 58.6875 12.4375 C59.49321442 12.61048615 60.29892883 12.78347229 61.12905884 12.96170044 C63.40284689 13.45049353 65.67611178 13.94164432 67.94921875 14.43359375 C68.62246185 14.57803925 69.29570496 14.72248474 69.98934937 14.87130737 C72.72221864 15.46509636 75.34360148 16.11453383 78 17 C78 21.29 78 25.58 78 30 C66.80861249 28.81176029 55.65525175 27.46384391 44.51257324 25.88290405 C42.17844777 25.55236746 39.84371204 25.22646369 37.50878906 24.90161133 C30.78284128 23.96434021 24.0595027 23.01601383 17.34375 22.0078125 C16.37920898 21.86657959 15.41466797 21.72534668 14.42089844 21.57983398 C12.74563006 21.33375023 11.07154199 21.07933288 9.39941406 20.81274414 C-4.62889064 18.77729396 -18.38709771 20.26683316 -32.3125 22.1875 C-34.0016074 22.41246652 -35.69081859 22.636655 -37.38012695 22.86010742 C-50.66143154 24.62952153 -63.92811401 26.51711926 -77.18286133 28.4753418 C-78.23469101 28.62934952 -78.23469101 28.62934952 -79.30776978 28.78646851 C-81.18946482 29.06227958 -83.07070327 29.34120067 -84.9519043 29.62036133 C-88 30 -88 30 -92 30 C-92 25.71 -92 21.42 -92 17 C-90.67145996 16.69852051 -89.34291992 16.39704102 -87.97412109 16.08642578 C-79.16331719 14.08599793 -70.35305679 12.08339818 -61.54693604 10.06243896 C-57.83849271 9.21159395 -54.12947325 8.36327538 -50.42041016 7.51513672 C-48.54581702 7.08586308 -46.67147031 6.65551199 -44.79736328 6.22412109 C-38.5384315 4.78407992 -32.27367541 3.37438686 -26 2 C-25.22942261 1.8287561 -24.45884521 1.65751221 -23.66491699 1.4810791 C-15.55712615 -0.29726914 -8.22723495 -1.64779889 0 0 Z " fill="#EDD048" transform="translate(122,151)"/>
<path d="M0 0 C12 0 12 0 25 2 C25 24.11 25 46.22 25 69 C4 72 4 72 0 72 C0 48.24 0 24.48 0 0 Z " fill="#EABD27" transform="translate(132,186)"/>
<path d="M0 0 C6.08787966 0 9.01315864 0.00591778 14.38671875 1.7578125 C16.14858521 2.32060913 16.14858521 2.32060913 17.94604492 2.89477539 C19.79806519 3.50373657 19.79806519 3.50373657 21.6875 4.125 C24.30053431 4.96450389 26.91605812 5.79615223 29.53125 6.62890625 C30.176884 6.8357756 30.82251801 7.04264496 31.48771667 7.25578308 C36.8576301 8.97194539 42.25767334 10.54875941 47.6875 12.0625 C55.90842225 14.37158181 64.08491971 16.81312174 72.25 19.3125 C73.40072998 19.66256104 74.55145996 20.01262207 75.73706055 20.37329102 C76.79836182 20.69998779 77.85966309 21.02668457 78.953125 21.36328125 C79.90348633 21.65501221 80.85384766 21.94674316 81.83300781 22.24731445 C84 23 84 23 85 24 C85.07258946 26.18639453 85.08373783 28.37500389 85.0625 30.5625 C85.05347656 31.76003906 85.04445313 32.95757812 85.03515625 34.19140625 C85.02355469 35.11824219 85.01195312 36.04507813 85 37 C77.32716398 35.95307803 69.76213897 34.59903276 62.1875 33 C61.40012451 32.8340332 60.61274902 32.66806641 59.80151367 32.49707031 C56.25981283 31.73858678 52.74567396 30.93554062 49.23364258 30.04541016 C45.10412469 29.0072932 40.95337845 28.12158525 36.78125 27.2734375 C36.03790405 27.12089508 35.29455811 26.96835266 34.52868652 26.81118774 C32.18611737 26.33084818 29.84307152 25.85288233 27.5 25.375 C25.89840518 25.04703279 24.29684238 24.7189092 22.6953125 24.390625 C18.7972423 23.59194398 14.89874312 22.79538938 11 22 C11 21.34 11 20.68 11 20 C7.37 19.34 3.74 18.68 0 18 C0 12.06 0 6.12 0 0 Z " fill="#3B3B38" transform="translate(115,131)"/>
<path d="M0 0 C0 4.29 0 8.58 0 13 C-4.6797479 15.0909193 -9.27065158 16.77632057 -14.20703125 18.19921875 C-14.88142746 18.39542313 -15.55582367 18.5916275 -16.25065613 18.79377747 C-18.43675785 19.42917419 -20.62451749 20.05861308 -22.8125 20.6875 C-25.88233428 21.57399733 -28.95126783 22.46355005 -32.01953125 23.35546875 C-32.78435822 23.57762054 -33.54918518 23.79977234 -34.33718872 24.02865601 C-39.04487596 25.40434704 -43.72137026 26.85014316 -48.38671875 28.36328125 C-60.74526895 32.36675526 -72.01079305 35.1193758 -85 36 C-85 30.39 -85 24.78 -85 19 C-77.90377924 15.93660415 -71.21366859 14.00403519 -63.625 12.625 C-61.41761589 12.20366737 -59.21059753 11.78041508 -57.00390625 11.35546875 C-55.86066895 11.13681152 -54.71743164 10.9181543 -53.53955078 10.69287109 C-47.53106368 9.5167029 -41.54724523 8.22824772 -35.5625 6.9375 C-34.38896973 6.68548828 -33.21543945 6.43347656 -32.00634766 6.17382812 C-26.78913715 5.04951156 -21.57590023 3.91094999 -16.37109375 2.73046875 C-15.53698975 2.54170166 -14.70288574 2.35293457 -13.84350586 2.15844727 C-12.33684476 1.8154892 -10.83106099 1.46864124 -9.32641602 1.11694336 C-6.08393642 0.3762957 -3.35577909 0 0 0 Z " fill="#A7712F" transform="translate(200,262)"/>
<path d="M0 0 C0.02698189 1.62490954 0.04638757 3.24994633 0.0625 4.875 C0.07410156 5.77992188 0.08570313 6.68484375 0.09765625 7.6171875 C0 10 0 10 -1 12 C-3.9373096 12.81224638 -6.83412699 13.49511813 -9.8125 14.125 C-11.82556174 14.56491704 -13.83857936 15.00503595 -15.8515625 15.4453125 C-16.97981445 15.68926758 -18.10806641 15.93322266 -19.27050781 16.18457031 C-23.3597472 17.07865643 -27.44177985 18.00175606 -31.5234375 18.9296875 C-49.62011716 23.03154107 -67.71886549 26.79926264 -86 30 C-86.33 23.4 -86.66 16.8 -87 10 C-82.26269531 9.38511719 -82.26269531 9.38511719 -77.4296875 8.7578125 C-74.32500499 8.35421546 -71.22036208 7.95031506 -68.11572266 7.54638672 C-65.98034708 7.26872676 -63.84493134 6.99137548 -61.70947266 6.71435547 C-51.15669353 5.3452127 -40.60731634 3.97006852 -30.07617188 2.44238281 C-24.8273373 1.68755041 -19.57165014 0.99120787 -14.3125 0.3125 C-12.72791992 0.09883789 -12.72791992 0.09883789 -11.11132812 -0.11914062 C-9.59635742 -0.3134668 -9.59635742 -0.3134668 -8.05078125 -0.51171875 C-7.15012939 -0.62990967 -6.24947754 -0.74810059 -5.3215332 -0.86987305 C-3 -1 -3 -1 0 0 Z " fill="#E6E2DC" transform="translate(201,250)"/>
<path d="M0 0 C13.87494175 1.28471683 27.19606616 4.04129124 40.78662109 7.06884766 C45.49488758 8.1138028 50.21011292 9.12578103 54.92578125 10.13671875 C56.62337583 10.50112334 58.32096698 10.86554387 60.01855469 11.22998047 C62.53220443 11.76952007 65.0458796 12.30893779 67.55969238 12.84771729 C69.90604873 13.35121187 72.25190896 13.85695775 74.59765625 14.36328125 C75.30263748 14.51407639 76.00761871 14.66487152 76.73396301 14.82023621 C79.55134458 15.42999389 82.26230959 16.08743653 85 17 C85 21.29 85 25.58 85 30 C73.59963353 28.78067779 62.22397047 27.44157971 50.86547852 25.87768555 C48.53945065 25.55934547 46.21217763 25.25139562 43.88476562 24.94335938 C36.57358311 23.95202162 29.59466969 22.75539424 22.50512695 20.65356445 C18.16627862 19.52159905 13.7708887 19.17597372 9.3125 18.8125 C8.40822266 18.73064453 7.50394531 18.64878906 6.57226562 18.56445312 C4.38228681 18.3674709 2.19123949 18.18242444 0 18 C0 12.06 0 6.12 0 0 Z " fill="#E7BC2B" transform="translate(115,151)"/>
<path d="M0 0 C0.33 0.99 0.66 1.98 1 3 C1.66 3 2.32 3 3 3 C3.33 2.01 3.66 1.02 4 0 C8.26772126 -1.51901943 10.84738677 -2.19572678 15.3125 -1.4375 C18.73169045 0.39136931 19.44523637 1.42946724 21 5 C21.36047767 8.61257285 21.28246701 12.18670812 21.1875 15.8125 C21.16719727 17.28106445 21.16719727 17.28106445 21.14648438 18.77929688 C21.11125796 21.18643541 21.05745463 23.59328943 21 26 C17.7 26 14.4 26 11 26 C10.67 20.39 10.34 14.78 10 9 C6.36380344 7.91915479 6.36380344 7.91915479 4 8 C3.67 13.94 3.34 19.88 3 26 C0.03 26 -2.94 26 -6 26 C-6.33 20.06 -6.66 14.12 -7 8 C-8.98 8.33 -10.96 8.66 -13 9 C-13.06058594 10.14339844 -13.12117187 11.28679687 -13.18359375 12.46484375 C-13.26798428 13.95574305 -13.35263302 15.44662775 -13.4375 16.9375 C-13.49647461 18.06961914 -13.49647461 18.06961914 -13.55664062 19.22460938 C-13.88671875 24.88671875 -13.88671875 24.88671875 -15 26 C-17.97 26 -20.94 26 -24 26 C-24 17.09 -24 8.18 -24 -1 C-20 -1 -16 -1 -12 -1 C-11.278125 -1.20625 -10.55625 -1.4125 -9.8125 -1.625 C-6.07757329 -2.12299023 -3.49172451 -1.34297097 0 0 Z " fill="#1F1F1F" transform="translate(265,188)"/>
<path d="M0 0 C5.0428125 -0.061875 5.0428125 -0.061875 10.1875 -0.125 C11.23832764 -0.14320801 12.28915527 -0.16141602 13.37182617 -0.18017578 C14.21205322 -0.1851709 15.05228027 -0.19016602 15.91796875 -0.1953125 C16.77156982 -0.20578613 17.6251709 -0.21625977 18.50463867 -0.22705078 C22.01918943 0.09273517 24.82962501 1.27356035 27.8125 3.125 C29.82038246 6.29534072 29.23440528 9.30811685 29 13 C28.67 13.66 28.34 14.32 28 15 C27.34 15 26.68 15 26 15 C26.639375 15.680625 27.27875 16.36125 27.9375 17.0625 C30.39565865 20.56351384 30.92392968 22.74006222 31 27 C29.7237493 30.30323712 28.51538109 31.65167923 25.58984375 33.62890625 C20.54971811 35.55391615 15.96312443 35.3207762 10.625 35.1875 C5.365625 35.0946875 5.365625 35.0946875 0 35 C0 23.45 0 11.9 0 0 Z M10 8 C10 9.65 10 11.3 10 13 C11.27875 13.061875 12.5575 13.12375 13.875 13.1875 C14.95394531 13.23970703 14.95394531 13.23970703 16.0546875 13.29296875 C16.69664062 13.19628906 17.33859375 13.09960938 18 13 C18.66 12.01 19.32 11.02 20 10 C18.23863645 7.81668311 18.23863645 7.81668311 16.0546875 7.8046875 C13.02734375 7.90234375 13.02734375 7.90234375 10 8 Z M10 21 C10 22.98 10 24.96 10 27 C12.97 27 15.94 27 19 27 C19.38218767 25.34385343 19.71395102 23.67542976 20 22 C18.99163938 20.76732652 18.99163938 20.76732652 16.93359375 20.90234375 C15.69802734 20.91974609 15.69802734 20.91974609 14.4375 20.9375 C13.19806641 20.95103516 13.19806641 20.95103516 11.93359375 20.96484375 C10.97646484 20.98224609 10.97646484 20.98224609 10 21 Z " fill="#E7BD31" transform="translate(388,179)"/>
<path d="M0 0 C3.3 0 6.6 0 10 0 C10.06058594 1.55332031 10.12117187 3.10664063 10.18359375 4.70703125 C10.26800154 6.74219695 10.35264943 8.77735271 10.4375 10.8125 C10.47681641 11.83666016 10.51613281 12.86082031 10.55664062 13.91601562 C10.61948242 15.39038086 10.61948242 15.39038086 10.68359375 16.89453125 C10.72025146 17.80050049 10.75690918 18.70646973 10.79467773 19.63989258 C10.9208205 22.15048782 10.9208205 22.15048782 12 25 C14.31 25.33 16.62 25.66 19 26 C21.19164944 22.71252584 21.28679386 21.51505175 21.4140625 17.67578125 C21.45273438 16.64775391 21.49140625 15.61972656 21.53125 14.56054688 C21.57765625 12.95276367 21.57765625 12.95276367 21.625 11.3125 C21.66367188 10.22904297 21.70234375 9.14558594 21.7421875 8.02929688 C21.83650116 5.35314666 21.91934126 2.67659658 22 0 C25.3 0 28.6 0 32 0 C32.08746928 4.04152915 32.14054982 8.08281305 32.1875 12.125 C32.21263672 13.26710937 32.23777344 14.40921875 32.26367188 15.5859375 C32.35618412 26.19400842 32.35618412 26.19400842 29 31 C25.10041293 34.89958707 21.75227147 35.299376 16.4375 35.4375 C11.67381315 35.43188906 8.87215114 34.81795292 5 32 C0.95217764 27.5024196 -0.1293011 24.43790738 -0.09765625 18.45703125 C-0.09443359 17.38388672 -0.09121094 16.31074219 -0.08789062 15.20507812 C-0.07951172 14.08552734 -0.07113281 12.96597656 -0.0625 11.8125 C-0.05798828 10.68134766 -0.05347656 9.55019531 -0.04882812 8.38476562 C-0.03703498 5.58979073 -0.0205765 2.7949218 0 0 Z " fill="#202020" transform="translate(204,179)"/>
<path d="M0 0 C0 0.33 0 0.66 0 1 C-1.65 1 -3.3 1 -5 1 C-5 2.65 -5 4.3 -5 6 C-15.82615472 12.08971203 -28.17383486 14.84461939 -40.12670898 17.9050293 C-48.79246934 20.15041906 -57.35595245 22.73506982 -65.92504883 25.3215332 C-67.58250122 25.81979614 -67.58250122 25.81979614 -69.2734375 26.328125 C-70.25747559 26.6262207 -71.24151367 26.92431641 -72.25537109 27.23144531 C-79.48705668 29.25647166 -79.48705668 29.25647166 -82 28 C-82 28.66 -82 29.32 -82 30 C-82.66 30.33 -83.32 30.66 -84 31 C-84.65213292 33.02463255 -84.65213292 33.02463255 -85 35 C-84.443125 34.855625 -83.88625 34.71125 -83.3125 34.5625 C-78.05863683 33.28453328 -73.40291471 32.80353037 -68 33 C-68 33.33 -68 33.66 -68 34 C-71.10311638 34.67161995 -74.20765168 35.33643675 -77.3125 36 C-78.19357422 36.19078125 -79.07464844 36.3815625 -79.98242188 36.578125 C-80.82998047 36.75859375 -81.67753906 36.9390625 -82.55078125 37.125 C-83.72120972 37.37636719 -83.72120972 37.37636719 -84.9152832 37.6328125 C-87 38 -87 38 -90 38 C-90 33.71 -90 29.42 -90 25 C-85.09556517 22.80900441 -80.21411776 21.02581399 -75.07421875 19.4765625 C-74.32775589 19.24850922 -73.58129303 19.02045593 -72.81221008 18.78549194 C-71.23532398 18.30465704 -69.65785353 17.82573476 -68.07983398 17.34863281 C-65.73081848 16.63810297 -63.38383907 15.92116346 -61.03710938 15.203125 C-52.44799208 12.58588948 -43.83234546 10.10207243 -35.17253113 7.729599 C-29.71633106 6.22521149 -24.35687655 4.51355705 -19 2.6875 C-12.45143811 0.52591705 -6.9615164 -0.68473932 0 0 Z " fill="#585858" transform="translate(120,130)"/>
<path d="M0 0 C2.97 0 5.94 0 9 0 C10 1 10 1 10.09765625 3.28515625 C10.08605469 4.20167969 10.07445312 5.11820313 10.0625 6.0625 C10.05347656 6.98160156 10.04445313 7.90070313 10.03515625 8.84765625 C10.02355469 9.55792969 10.01195312 10.26820313 10 11 C10.87011719 10.73123047 10.87011719 10.73123047 11.7578125 10.45703125 C15.972178 9.30955549 18.22998081 8.71999302 22.4375 10.25 C26.72325328 13.1768559 26.72325328 13.1768559 27.61889648 15.84082031 C28.02203512 18.12484217 28.11332273 20.22823641 28.09765625 22.546875 C28.09443359 23.39121094 28.09121094 24.23554688 28.08789062 25.10546875 C28.07951172 25.97816406 28.07113281 26.85085937 28.0625 27.75 C28.05798828 28.63816406 28.05347656 29.52632812 28.04882812 30.44140625 C28.03707422 32.62763316 28.01913966 34.81382528 28 37 C24.7 37 21.4 37 18 37 C17.67 31.06 17.34 25.12 17 19 C15.02 19.33 13.04 19.66 11 20 C10.93941406 21.14339844 10.87882813 22.28679687 10.81640625 23.46484375 C10.73201572 24.95574305 10.64736698 26.44662775 10.5625 27.9375 C10.50352539 29.06961914 10.50352539 29.06961914 10.44335938 30.22460938 C10.11328125 35.88671875 10.11328125 35.88671875 9 37 C6.03 37 3.06 37 0 37 C0 24.79 0 12.58 0 0 Z M9 11 C10 13 10 13 10 13 Z " fill="#EABD28" transform="translate(532,177)"/>
<path d="M0 0 C2.97 0 5.94 0 9 0 C9.33 3.63 9.66 7.26 10 11 C11.36125 10.608125 12.7225 10.21625 14.125 9.8125 C17.700565 9.01292483 18.8435325 8.94594759 22.4375 10.1875 C25 12 25 12 27 15 C27.22705078 17.36010742 27.22705078 17.36010742 27.1953125 20.10546875 C27.18886719 21.08837891 27.18242187 22.07128906 27.17578125 23.08398438 C27.15902344 24.10814453 27.14226562 25.13230469 27.125 26.1875 C27.11597656 27.22326172 27.10695313 28.25902344 27.09765625 29.32617188 C27.0740786 31.88434685 27.0411703 34.44205748 27 37 C24.03 37 21.06 37 18 37 C17.67 31.06 17.34 25.12 17 19 C14.69 19 12.38 19 10 19 C9.67 24.94 9.34 30.88 9 37 C6.03 37 3.06 37 0 37 C0 24.79 0 12.58 0 0 Z " fill="#191919" transform="translate(343,177)"/>
<path d="M0 0 C2.97 0 5.94 0 9 0 C9.33 5.28 9.66 10.56 10 16 C11.1446875 14.515 11.1446875 14.515 12.3125 13 C14.53917831 10.71430131 15.64396034 10.04981625 18.84765625 9.6015625 C21.58686506 9.62276928 24.27380195 9.73805214 27 10 C26.59007812 10.54269531 26.18015625 11.08539063 25.7578125 11.64453125 C25.21898437 12.35996094 24.68015625 13.07539063 24.125 13.8125 C23.59132813 14.52019531 23.05765625 15.22789062 22.5078125 15.95703125 C21.29185219 17.60456297 20.13583859 19.29624211 19 21 C19.5775 21.98742187 20.155 22.97484375 20.75 23.9921875 C21.500226 25.28632735 22.25021368 26.58060537 23 27.875 C23.3815625 28.52597656 23.763125 29.17695313 24.15625 29.84765625 C27 34.7734375 27 34.7734375 27 37 C23.22704891 37.47574865 19.75020743 37.71733926 16 37 C13.59270432 34.62909972 12.39720351 32.0385785 11 29 C10.67 29 10.34 29 10 29 C9.67 31.64 9.34 34.28 9 37 C6.03 37 3.06 37 0 37 C0 24.79 0 12.58 0 0 Z " fill="#E7BE32" transform="translate(473,177)"/>
<path d="M0 0 C2.08413248 1.52301989 2.65325739 2.80008733 3.625 5.1875 C3.85205078 7.56933594 3.85205078 7.56933594 3.8203125 10.171875 C3.81386719 11.10644531 3.80742188 12.04101562 3.80078125 13.00390625 C3.78402344 13.97199219 3.76726563 14.94007813 3.75 15.9375 C3.74097656 16.92105469 3.73195313 17.90460938 3.72265625 18.91796875 C3.69912785 21.34139407 3.66625368 23.76432222 3.625 26.1875 C0.22962148 26.33325327 -3.16494902 26.42171542 -6.5625 26.5 C-7.52220703 26.54189453 -8.48191406 26.58378906 -9.47070312 26.62695312 C-16.60439941 26.75037348 -16.60439941 26.75037348 -20.51953125 23.890625 C-22.93485362 20.37188168 -22.98416306 18.37549606 -22.375 14.1875 C-21.23046875 12.05078125 -21.23046875 12.05078125 -19.375 10.1875 C-16.45703125 9.359375 -16.45703125 9.359375 -13.1875 8.9375 C-12.10082031 8.78796875 -11.01414062 8.6384375 -9.89453125 8.484375 C-9.06308594 8.38640625 -8.23164062 8.2884375 -7.375 8.1875 C-7.375 7.5275 -7.375 6.8675 -7.375 6.1875 C-11.005 6.8475 -14.635 7.5075 -18.375 8.1875 C-21.375 3.4375 -21.375 3.4375 -21.375 1.1875 C-13.63813428 -1.3298258 -7.87620572 -2.69449143 0 0 Z M-13.375 15.1875 C-13.045 16.5075 -12.715 17.8275 -12.375 19.1875 C-10.395 18.8575 -8.415 18.5275 -6.375 18.1875 C-6.375 17.1975 -6.375 16.2075 -6.375 15.1875 C-8.685 15.1875 -10.995 15.1875 -13.375 15.1875 Z " fill="#EABD29" transform="translate(523.375,187.8125)"/>
<path d="M0 0 C1.54300781 -0.03867188 1.54300781 -0.03867188 3.1171875 -0.078125 C7.28043041 0.37604695 9.84707351 2.06335397 12.875 4.875 C15.5122867 9.88584473 15.56245056 14.68032447 14.0625 20.0625 C11.71388182 23.92635571 10.27046557 25.39934573 6.125 27.25 C0.98063088 28.00264526 -4.0847137 28.01948965 -8.875 25.8125 C-12.85493504 22.41297216 -14.2311908 19.41698156 -14.875 14.25 C-14.62871594 9.71547584 -13.73089209 6.35437689 -10.9375 2.75 C-7.38567514 0.16685465 -4.27192538 0.06391908 0 0 Z M-3 8.375 C-5.17648869 10.16777581 -5.17648869 10.16777581 -5.25 13.25 C-5.0799729 16.42702205 -5.0799729 16.42702205 -2.875 19.25 C0.125 19.66666667 0.125 19.66666667 3.125 19.25 C5.48139408 17.31110754 5.48139408 17.31110754 5.5 13.8125 C5.49314577 10.2321286 5.49314577 10.2321286 3.25 8.3125 C0.47969508 6.92734754 -0.25885136 6.92380366 -3 8.375 Z " fill="#202020" transform="translate(323.875,186.75)"/>
<path d="M0 0 C2.41983909 2.19297918 3.72166302 3.78485979 5 6.8125 C5 9.4525 5 12.0925 5 14.8125 C-0.61 14.8125 -6.22 14.8125 -12 14.8125 C-11.67 15.4725 -11.34 16.1325 -11 16.8125 C-9.741875 16.8125 -8.48375 16.8125 -7.1875 16.8125 C0 16.8125 0 16.8125 1.6875 18.3125 C2.120625 18.8075 2.55375 19.3025 3 19.8125 C2.05708604 22.16978489 1.4290911 23.5392671 -0.7421875 24.921875 C-5.03204335 26.61406727 -9.47514341 26.33056329 -14 25.8125 C-18.14546557 23.96184573 -19.58888182 22.48885571 -21.9375 18.625 C-23.22910494 13.99041758 -23.39114756 10.43010426 -22 5.8125 C-17.35863418 -2.18467348 -8.22922031 -3.25739971 0 0 Z M-9 4.8125 C-11.0399719 6.17573743 -11.0399719 6.17573743 -13 7.8125 C-13 8.4725 -13 9.1325 -13 9.8125 C-10.36 9.8125 -7.72 9.8125 -5 9.8125 C-5 8.8225 -5 7.8325 -5 6.8125 C-6.32 6.1525 -7.64 5.4925 -9 4.8125 Z " fill="#E9BD2B" transform="translate(443,188.1875)"/>
<path d="M0 0 C0 0.66 0 1.32 0 2 C-3.29960141 3.6498007 -6.99127884 3.38258361 -10.625 3.5625 C-11.42679688 3.60568359 -12.22859375 3.64886719 -13.0546875 3.69335938 C-15.0362511 3.79951457 -17.01810271 3.90026855 -19 4 C-19.33 5.32 -19.66 6.64 -20 8 C-21.65 8 -23.3 8 -25 8 C-25 8.66 -25 9.32 -25 10 C-25.66 10 -26.32 10 -27 10 C-27 10.99 -27 11.98 -27 13 C-26.40985107 12.98952637 -25.81970215 12.97905273 -25.21166992 12.96826172 C-22.53698996 12.92667956 -19.86237803 12.9006671 -17.1875 12.875 C-15.7943457 12.84986328 -15.7943457 12.84986328 -14.37304688 12.82421875 C-13.48037109 12.81777344 -12.58769531 12.81132812 -11.66796875 12.8046875 C-10.84578857 12.79421387 -10.0236084 12.78374023 -9.17651367 12.77294922 C-7 13 -7 13 -4 15 C-4.11344376 17.1464753 -4.24106345 19.29220592 -4.375 21.4375 C-4.44460937 22.63246094 -4.51421875 23.82742187 -4.5859375 25.05859375 C-4.72257812 26.02925781 -4.85921875 26.99992187 -5 28 C-8.29677888 29.64838944 -11.94316044 29.14272738 -15.5625 29.125 C-16.35591797 29.12886719 -17.14933594 29.13273437 -17.96679688 29.13671875 C-23.87336933 29.12663067 -23.87336933 29.12663067 -25 28 C-25.397493 25.65276034 -25.74368723 23.29671452 -26.0625 20.9375 C-26.23910156 19.64714844 -26.41570313 18.35679687 -26.59765625 17.02734375 C-26.73042969 16.02832031 -26.86320312 15.02929688 -27 14 C-28.65 14 -30.3 14 -32 14 C-32 10.66666667 -32 7.33333333 -32 4 C-16.27734375 1.75390625 -16.27734375 1.75390625 -13.53076172 1.36376953 C-11.37443717 1.05382128 -9.22017506 0.72957973 -7.06640625 0.40234375 C-4 0 -4 0 0 0 Z " fill="#48442E" transform="translate(68,176)"/>
<path d="M0 0 C-0.33 22.44 -0.66 44.88 -1 68 C-0.01 68.33 0.98 68.66 2 69 C-1.96 68.505 -1.96 68.505 -6 68 C-6 45.56 -6 23.12 -6 0 C-2 -1 -2 -1 0 0 Z " fill="#4C4B4A" transform="translate(36,181)"/>
<path d="M0 0 C0 5.61 0 11.22 0 17 C-6.6 17 -13.2 17 -20 17 C-20 11.72 -20 6.44 -20 1 C-13.28327457 -0.03334237 -6.79665108 -0.07723467 0 0 Z " fill="#EDD146" transform="translate(98,186)"/>
<path d="M0 0 C0 2.64 0 5.28 0 8 C-1.134375 8.28875 -2.26875 8.5775 -3.4375 8.875 C-4.613125 9.24625 -5.78875 9.6175 -7 10 C-8.52106634 13.04213267 -8.37429338 16.28047572 -8.5625 19.625 C-8.60568359 20.33140625 -8.64886719 21.0378125 -8.69335938 21.765625 C-8.79944751 23.51018537 -8.90022889 25.25506697 -9 27 C-11.97 27 -14.94 27 -18 27 C-18 18.09 -18 9.18 -18 0 C-14 0 -10 0 -6 0 C-5.319375 -0.185625 -4.63875 -0.37125 -3.9375 -0.5625 C-2 -1 -2 -1 0 0 Z " fill="#E9BD29" transform="translate(470,187)"/>
<path d="M0 0 C6 0 12 0 18 0 C18 2.64 18 5.28 18 8 C16.2984375 8.4021875 16.2984375 8.4021875 14.5625 8.8125 C13.386875 9.204375 12.21125 9.59625 11 10 C9.84429296 13.46712111 9.67164707 16.5414956 9.4375 20.1875 C9.35371094 21.45980469 9.26992188 22.73210937 9.18359375 24.04296875 C9.12300781 25.01878906 9.06242187 25.99460938 9 27 C6.03 27 3.06 27 0 27 C0 18.09 0 9.18 0 0 Z " fill="#181818" transform="translate(291,187)"/>
<path d="M0 0 C1.98 0 3.96 0 6 0 C6.33 3.96 6.66 7.92 7 12 C9.31 12.66 11.62 13.32 14 14 C14 14.66 14 15.32 14 16 C11.03 16.33 8.06 16.66 5 17 C5.18464366 21.34184202 5.18464366 21.34184202 7 25 C9.01594582 25.23427778 11.038474 25.41336124 13.0625 25.5625 C14.16722656 25.64628906 15.27195312 25.73007813 16.41015625 25.81640625 C17.26480469 25.87699219 18.11945313 25.93757813 19 26 C19.43957031 25.18144531 19.87914062 24.36289063 20.33203125 23.51953125 C20.88246094 22.68808594 21.43289063 21.85664063 22 21 C24.6875 20.6875 24.6875 20.6875 27 21 C25.5 25.5 25.5 25.5 24 30 C19.25134847 31.21611807 14.61505567 31.14816693 9.75 31.125 C8.50863281 31.13080078 8.50863281 31.13080078 7.2421875 31.13671875 C1.12669335 31.12669335 1.12669335 31.12669335 0 30 C-0.08783542 27.78144736 -0.10694609 25.56011504 -0.09765625 23.33984375 C-0.0962413 22.67537735 -0.09482635 22.01091095 -0.09336853 21.3263092 C-0.08775518 19.19666101 -0.07520054 17.06711661 -0.0625 14.9375 C-0.05748671 13.49674631 -0.05292351 12.05599097 -0.04882812 10.61523438 C-0.03778145 7.07678898 -0.02050792 3.53840461 0 0 Z " fill="#EABD28" transform="translate(390,181)"/>
<path d="M0 0 C2.31 0 4.62 0 7 0 C7 5.94 7 11.88 7 18 C8.32 18 9.64 18 11 18 C11 17.34 11 16.68 11 16 C11.99 15.67 12.98 15.34 14 15 C14.66 16.65 15.32 18.3 16 20 C14.37660195 21.70884005 12.70680947 23.37446717 11 25 C10.34 25 9.68 25 9 25 C9 25.99 9 26.98 9 28 C8.34 28.33 7.68 28.66 7 29 C6.34444881 31.52733235 6.34444881 31.52733235 6 34 C4.02 34 2.04 34 0 34 C0 22.78 0 11.56 0 0 Z " fill="#E9BD2C" transform="translate(474,178)"/>
<path d="M0 0 C2.31 0 4.62 0 7 0 C7.33 4.29 7.66 8.58 8 13 C8.33 12.01 8.66 11.02 9 10 C13.03887479 8.28931956 16.84845197 7.67098628 21.0625 8.875 C21.701875 9.24625 22.34125 9.6175 23 10 C22.34 10.66 21.68 11.32 21 12 C18.27130593 11.96712417 15.7033382 11.43602229 13 11 C12.67 11.99 12.34 12.98 12 14 C13.32 14.66 14.64 15.32 16 16 C14.865625 16.12375 13.73125 16.2475 12.5625 16.375 C10.7990625 16.684375 10.7990625 16.684375 9 17 C7.47893366 20.04213267 7.62570662 23.28047572 7.4375 26.625 C7.39431641 27.33140625 7.35113281 28.0378125 7.30664062 28.765625 C7.20055249 30.51018537 7.09977111 32.25506697 7 34 C4.69 34 2.38 34 0 34 C0 22.78 0 11.56 0 0 Z " fill="#E6BD31" transform="translate(533,178)"/>
<path d="M0 0 C0 4.62 0 9.24 0 14 C-5.61 14 -11.22 14 -17 14 C-17 10.04 -17 6.08 -17 2 C-14.34466727 0.67233364 -12.01973081 0.6633249 -9.0625 0.4375 C-7.47115234 0.31181641 -7.47115234 0.31181641 -5.84765625 0.18359375 C-3.90151754 0.05812253 -1.9501792 0 0 0 Z " fill="#EFD246" transform="translate(61,189)"/>
<path d="M0 0 C12 0 12 0 25 2 C25 24.11 25 46.22 25 69 C4 72 4 72 0 72 C0 48.24 0 24.48 0 0 Z M1 1 C1 23.77 1 46.54 1 70 C17.10642033 70.06610424 17.10642033 70.06610424 24 67 C24 45.88 24 24.76 24 3 C19.71 3 15.42 3 11 3 C10.01 2.34 9.02 1.68 8 1 C5.69 1 3.38 1 1 1 Z " fill="#DEBB4A" transform="translate(132,186)"/>
<path d="M0 0 C5.80058027 -0.09063407 11.26039225 0.16514796 17 1 C17 4.96 17 8.92 17 13 C11.39 13 5.78 13 0 13 C0 8.71 0 4.42 0 0 Z " fill="#EABD28" transform="translate(172,190)"/>
<path d="M0 0 C3.3825 -0.04125 6.765 -0.0825 10.25 -0.125 C11.30993164 -0.14320801 12.36986328 -0.16141602 13.46191406 -0.18017578 C14.30463867 -0.1851709 15.14736328 -0.19016602 16.015625 -0.1953125 C16.87446289 -0.20578613 17.73330078 -0.21625977 18.61816406 -0.22705078 C21 0 21 0 25 2 C20.05 2 15.1 2 10 2 C10 3.32 10 4.64 10 6 C12.97 6 15.94 6 19 6 C19.33 7.32 19.66 8.64 20 10 C19.34 9.67 18.68 9.34 18 9 C18 8.34 18 7.68 18 7 C15.03 7 12.06 7 9 7 C9 9.31 9 11.62 9 14 C8.67 14 8.34 14 8 14 C8 10.04 8 6.08 8 2 C6.02 2 4.04 2 2 2 C2.33 11.9 2.66 21.8 3 32 C10.59 32 18.18 32 26 32 C25.67 32.66 25.34 33.32 25 34 C21.99984088 35.00005304 20.02576244 35.11575585 16.89453125 35.09765625 C16.00870361 35.09515869 15.12287598 35.09266113 14.21020508 35.09008789 C13.0889624 35.08098389 11.96771973 35.07187988 10.8125 35.0625 C7.244375 35.041875 3.67625 35.02125 0 35 C0 23.45 0 11.9 0 0 Z " fill="#EACD67" transform="translate(388,179)"/>
<path d="M0 0 C0.33 0 0.66 0 1 0 C1 6.93 1 13.86 1 21 C-2.361875 21.103125 -5.72375 21.20625 -9.1875 21.3125 C-10.76374146 21.38078003 -10.76374146 21.38078003 -12.37182617 21.45043945 C-17.01982613 21.5195199 -19.29329119 21.5162047 -23.14453125 18.703125 C-25.55985362 15.18438168 -25.60916306 13.18799606 -25 9 C-23.85546875 6.86328125 -23.85546875 6.86328125 -22 5 C-19.08203125 4.171875 -19.08203125 4.171875 -15.8125 3.75 C-14.72582031 3.60046875 -13.63914062 3.4509375 -12.51953125 3.296875 C-11.68808594 3.19890625 -10.85664062 3.1009375 -10 3 C-10 2.34 -10 1.68 -10 1 C-9.01 1 -8.02 1 -7 1 C-6.67 2.65 -6.34 4.3 -6 6 C-10.95 6.33 -15.9 6.66 -21 7 C-21 8.32 -21 9.64 -21 11 C-20.34 11 -19.68 11 -19 11 C-19 10.34 -19 9.68 -19 9 C-15.37 9 -11.74 9 -8 9 C-8.33 10.98 -8.66 12.96 -9 15 C-13.82360189 15.19294408 -17.49646738 14.75747614 -22 13 C-21.67 14.98 -21.34 16.96 -21 19 C-14.565 18.505 -14.565 18.505 -8 18 C-8 18.66 -8 19.32 -8 20 C-5.36 20 -2.72 20 0 20 C0 13.4 0 6.8 0 0 Z M-16 10 C-15.67 11.32 -15.34 12.64 -15 14 C-13.02 13.67 -11.04 13.34 -9 13 C-9 12.01 -9 11.02 -9 10 C-11.31 10 -13.62 10 -16 10 Z " fill="#F0D885" transform="translate(526,193)"/>
<path d="M0 0 C2.95814719 2.61227152 4.71876108 5.66570307 6.6875 9.0625 C7.31011719 10.12597656 7.93273437 11.18945312 8.57421875 12.28515625 C10 15 10 15 10 17 C6.19843914 17.5479118 2.77791028 17.78253011 -1 17 C-3.79229367 14.38717322 -5.50107379 11.50381908 -7 8 C-7 7.34 -7 6.68 -7 6 C-3.53846154 3 -3.53846154 3 -1 3 C-0.67 2.01 -0.34 1.02 0 0 Z " fill="#ECCB53" transform="translate(490,197)"/>
<path d="M0 0 C2.41983909 2.19297918 3.72166302 3.78485979 5 6.8125 C5 9.4525 5 12.0925 5 14.8125 C-0.61 14.8125 -6.22 14.8125 -12 14.8125 C-12.33 15.4725 -12.66 16.1325 -13 16.8125 C-13 15.8225 -13 14.8325 -13 13.8125 C-8.05 13.4825 -3.1 13.1525 2 12.8125 C2 9.8425 2 6.8725 2 3.8125 C-3.39671064 2.46332234 -9.73282363 1.41951783 -15.015625 3.671875 C-16.8358986 4.89128158 -18.44978209 6.26228209 -20 7.8125 C-20.23287008 9.49433948 -20.41264166 11.1837416 -20.5625 12.875 C-20.68818359 14.25365234 -20.68818359 14.25365234 -20.81640625 15.66015625 C-20.87699219 16.37042969 -20.93757813 17.08070313 -21 17.8125 C-19.68 18.4725 -18.36 19.1325 -17 19.8125 C-17 20.8025 -17 21.7925 -17 22.8125 C-20 21.8125 -20 21.8125 -21.75 18.8125 C-23.46381739 14.37298367 -23.36693017 10.34972004 -22 5.8125 C-17.35863418 -2.18467348 -8.22922031 -3.25739971 0 0 Z " fill="#E5C853" transform="translate(443,188.1875)"/>
<path d="M0 0 C0 2.64 0 5.28 0 8 C-1.134375 8.28875 -2.26875 8.5775 -3.4375 8.875 C-4.613125 9.24625 -5.78875 9.6175 -7 10 C-8.52106634 13.04213267 -8.37429338 16.28047572 -8.5625 19.625 C-8.60568359 20.33140625 -8.64886719 21.0378125 -8.69335938 21.765625 C-8.79944751 23.51018537 -8.90022889 25.25506697 -9 27 C-11.97 27 -14.94 27 -18 27 C-18 18.09 -18 9.18 -18 0 C-14 0 -10 0 -6 0 C-5.319375 -0.185625 -4.63875 -0.37125 -3.9375 -0.5625 C-2 -1 -2 -1 0 0 Z M-17 1 C-17 8.92 -17 16.84 -17 25 C-15.02 25 -13.04 25 -11 25 C-10.505 16.09 -10.505 16.09 -10 7 C-8.02 7 -6.04 7 -4 7 C-3.67 5.35 -3.34 3.7 -3 2 C-5.31 2.66 -7.62 3.32 -10 4 C-10 3.01 -10 2.02 -10 1 C-12.31 1 -14.62 1 -17 1 Z " fill="#E8CC69" transform="translate(470,187)"/>
<path d="M0 0 C1.65 0 3.3 0 5 0 C5.05395478 1.62463842 5.09277195 3.24978541 5.125 4.875 C5.14820313 5.77992188 5.17140625 6.68484375 5.1953125 7.6171875 C5 10 5 10 3 12 C2.67 11.67 2.34 11.34 2 11 C2.27034634 13.43717258 2.27034634 13.43717258 3 16 C3.99 16.66 4.98 17.32 6 18 C5.67 22.62 5.34 27.24 5 32 C3.35 32 1.7 32 0 32 C0 21.44 0 10.88 0 0 Z " fill="#EBBD27" transform="translate(534,179)"/>
<path d="M0 0 C2.97 0 5.94 0 9 0 C10 1 10 1 10.09765625 4.16015625 C10.08605469 5.44792969 10.07445312 6.73570312 10.0625 8.0625 C10.05347656 9.35285156 10.04445313 10.64320313 10.03515625 11.97265625 C10.02355469 12.97167969 10.01195312 13.97070312 10 15 C9.34 14.67 8.68 14.34 8 14 C8 9.71 8 5.42 8 1 C5.69 1 3.38 1 1 1 C1 12.22 1 23.44 1 35 C3.31 35 5.62 35 8 35 C7.97679687 33.95199219 7.95359375 32.90398437 7.9296875 31.82421875 C7.91092697 30.44531963 7.89272707 29.0664128 7.875 27.6875 C7.85824219 26.99720703 7.84148438 26.30691406 7.82421875 25.59570312 C7.78782206 21.82864604 7.85621136 20.21568296 10 17 C13.625 16.8125 13.625 16.8125 17 17 C17 17.66 17 18.32 17 19 C15.02 19.33 13.04 19.66 11 20 C10.93941406 21.14339844 10.87882813 22.28679687 10.81640625 23.46484375 C10.73201572 24.95574305 10.64736698 26.44662775 10.5625 27.9375 C10.50352539 29.06961914 10.50352539 29.06961914 10.44335938 30.22460938 C10.11328125 35.88671875 10.11328125 35.88671875 9 37 C6.03 37 3.06 37 0 37 C0 24.79 0 12.58 0 0 Z " fill="#ECD67D" transform="translate(532,177)"/>
<path d="M0 0 C0.99 0 1.98 0 3 0 C3 4.29 3 8.58 3 13 C0.69 13 -1.62 13 -4 13 C-4 12.34 -4 11.68 -4 11 C-5.98 11 -7.96 11 -10 11 C-10 11.66 -10 12.32 -10 13 C-10.99 13 -11.98 13 -13 13 C-12.54738642 11.56068883 -12.08767021 10.12361001 -11.625 8.6875 C-11.24214844 7.48673828 -11.24214844 7.48673828 -10.8515625 6.26171875 C-10 4 -10 4 -8 1 C-6.1875 1.0625 -6.1875 1.0625 -4 2 C-2.25 5.5625 -2.25 5.5625 -1 9 C-0.67 6.03 -0.34 3.06 0 0 Z M-7 6 C-7.33 6.66 -7.66 7.32 -8 8 C-7.01 7.67 -6.02 7.34 -5 7 C-5.66 6.67 -6.32 6.34 -7 6 Z " fill="#444444" transform="translate(312,232)"/>
<path d="M0 0 C1.79093191 -0.08086147 3.58289628 -0.13912702 5.375 -0.1875 C6.87160156 -0.23970703 6.87160156 -0.23970703 8.3984375 -0.29296875 C9.25695312 -0.19628906 10.11546875 -0.09960938 11 0 C11.66 0.99 12.32 1.98 13 3 C13.33 2.01 13.66 1.02 14 0 C14.99 0 15.98 0 17 0 C16.34 2.64 15.68 5.28 15 8 C13.68 8.33 12.36 8.66 11 9 C10.34 7.68 9.68 6.36 9 5 C8.67 6.32 8.34 7.64 8 9 C5.1875 9.625 5.1875 9.625 2 10 C1.01 9.34 0.02 8.68 -1 8 C-0.67 5.36 -0.34 2.72 0 0 Z " fill="#6C6C6C" transform="translate(433,236)"/>
<path d="M0 0 C0 0.33 0 0.66 0 1 C-4.69881025 1.18072347 -8.88026307 0.89617847 -13.5 0 C-27.92933615 -2.45530011 -41.8334815 -0.4457997 -56.1730957 1.57666016 C-58.11575317 1.84808838 -58.11575317 1.84808838 -60.09765625 2.125 C-61.83801147 2.37636719 -61.83801147 2.37636719 -63.61352539 2.6328125 C-67.10257544 3.01112201 -70.49334687 3.06249426 -74 3 C-74 2.34 -74 1.68 -74 1 C-22.91265317 -5.5868298 -22.91265317 -5.5868298 0 0 Z " fill="#DAC154" transform="translate(144,172)"/>
<path d="M0 0 C0.33 0 0.66 0 1 0 C1 7.26 1 14.52 1 22 C-1.64 22 -4.28 22 -7 22 C-7 21.34 -7 20.68 -7 20 C-13.435 20.495 -13.435 20.495 -20 21 C-22 18 -22 18 -21.625 15.8125 C-21.41875 15.214375 -21.2125 14.61625 -21 14 C-20.01 14.33 -19.02 14.66 -18 15 C-17.34 14.34 -16.68 13.68 -16 13 C-15.67 13.99 -15.34 14.98 -15 16 C-12.69 16.33 -10.38 16.66 -8 17 C-7.67 15.02 -7.34 13.04 -7 11 C-6.67 11 -6.34 11 -6 11 C-5.67 13.64 -5.34 16.28 -5 19 C-3.35 19.33 -1.7 19.66 0 20 C0 13.4 0 6.8 0 0 Z " fill="#E3BD3D" transform="translate(525,191)"/>
<path d="M0 0 C0.99 0 1.98 0 3 0 C3.33 0.99 3.66 1.98 4 3 C4 2.01 4 1.02 4 0 C6.33294775 -0.04241723 8.66702567 -0.04092937 11 0 C12 1 12 1 12.09765625 2.84765625 C12.04882812 5.92382812 12.04882812 5.92382812 12 9 C8.94152152 9.54372951 6.11227195 10 3 10 C2.01 11.485 2.01 11.485 1 13 C-0.32 12.67 -1.64 12.34 -3 12 C-2.67 11.34 -2.34 10.68 -2 10 C-1.34 10 -0.68 10 0 10 C0 6.7 0 3.4 0 0 Z " fill="#9E9E9E" transform="translate(333,236)"/>
<path d="M0 0 C0 0.66 0 1.32 0 2 C-1.98567708 1.70703125 -3.97135417 1.4140625 -5.95703125 1.12109375 C-8.2025342 0.86095201 -8.2025342 0.86095201 -11 2 C-10.67 2.99 -10.34 3.98 -10 5 C-13.3 5.66 -16.6 6.32 -20 7 C-23 2.25 -23 2.25 -23 0 C-15.03168654 -2.5926314 -7.65308282 -4.78317676 0 0 Z " fill="#E8BF3B" transform="translate(525,189)"/>
<path d="M0 0 C2.64 0.33 5.28 0.66 8 1 C7.01 1.495 7.01 1.495 6 2 C6.66 5.63 7.32 9.26 8 13 C9.32 13.33 10.64 13.66 12 14 C12 14.66 12 15.32 12 16 C7.51311093 15.4721307 4.26272499 14.70509 0 13 C0 8.71 0 4.42 0 0 Z " fill="#C29564" transform="translate(29,262)"/>
<path d="M0 0 C1.32 0 2.64 0 4 0 C4 5.61 4 11.22 4 17 C-2.6 17 -9.2 17 -16 17 C-16 11.72 -16 6.44 -16 1 C-11.71 1 -7.42 1 -3 1 C-6.30243306 4.30243306 -10.44971086 3.64997776 -15 4 C-15 7.63 -15 11.26 -15 15 C-9.06 15 -3.12 15 3 15 C3 10.38 3 5.76 3 1 C2.01 0.67 1.02 0.34 0 0 Z " fill="#E7CF5B" transform="translate(94,186)"/>
<path d="M0 0 C2.97 0 5.94 0 9 0 C9.06058594 1.13179687 9.12117188 2.26359375 9.18359375 3.4296875 C9.26799917 4.91147145 9.35264717 6.3932416 9.4375 7.875 C9.47681641 8.62136719 9.51613281 9.36773437 9.55664062 10.13671875 C9.71573624 14.19986864 9.71573624 14.19986864 11 18 C10.01 18 9.02 18 8 18 C8 12.39 8 6.78 8 1 C5.69 1 3.38 1 1 1 C1 12.22 1 23.44 1 35 C2.98 35 4.96 35 7 35 C7 33.35 7 31.7 7 30 C7.66 29.67 8.32 29.34 9 29 C9 31.64 9 34.28 9 37 C6.03 37 3.06 37 0 37 C0 24.79 0 12.58 0 0 Z " fill="#EBD381" transform="translate(473,177)"/>
<path d="M0 0 C1.2065625 0.0309375 1.2065625 0.0309375 2.4375 0.0625 C2.56125 0.866875 2.685 1.67125 2.8125 2.5 C3.121875 3.7684375 3.121875 3.7684375 3.4375 5.0625 C4.0975 5.3925 4.7575 5.7225 5.4375 6.0625 C6.0625 9.125 6.0625 9.125 6.4375 12.0625 C5.1175 12.0625 3.7975 12.0625 2.4375 12.0625 C1.756875 12.26875 1.07625 12.475 0.375 12.6875 C-1.5625 13.0625 -1.5625 13.0625 -4.5625 11.0625 C-4.42207123 9.41619672 -4.27500671 7.77045821 -4.125 6.125 C-4.04378906 5.20847656 -3.96257812 4.29195312 -3.87890625 3.34765625 C-3.43241544 0.12300042 -3.2948538 0.08036229 0 0 Z M-0.5625 2.0625 C-0.2325 2.7225 0.0975 3.3825 0.4375 4.0625 C0.7675 3.4025 1.0975 2.7425 1.4375 2.0625 C0.7775 2.0625 0.1175 2.0625 -0.5625 2.0625 Z M-1.5625 7.0625 C-1.5625 8.0525 -1.5625 9.0425 -1.5625 10.0625 C-0.9025 9.7325 -0.2425 9.4025 0.4375 9.0625 C-0.2225 8.4025 -0.8825 7.7425 -1.5625 7.0625 Z " fill="#767676" transform="translate(405.5625,232.9375)"/>
<path d="M0 0 C4.95 0 9.9 0 15 0 C17 4 17 4 16.625 6.25 C16.41875 6.8275 16.2125 7.405 16 8 C13.0625 7.625 13.0625 7.625 10 7 C9.67 6.34 9.34 5.68 9 5 C6.87423218 4.53348793 6.87423218 4.53348793 4.4375 4.375 C3.61121094 4.30023438 2.78492188 4.22546875 1.93359375 4.1484375 C1.29550781 4.09945312 0.65742188 4.05046875 0 4 C0 2.68 0 1.36 0 0 Z " fill="#EABD29" transform="translate(398,181)"/>
<path d="M0 0 C3 2 3 2 3.68139648 3.84082031 C4.0165192 6.11195078 4.11316733 8.25123511 4.09765625 10.546875 C4.09443359 11.39121094 4.09121094 12.23554688 4.08789062 13.10546875 C4.07951172 13.97816406 4.07113281 14.85085937 4.0625 15.75 C4.05798828 16.63816406 4.05347656 17.52632812 4.04882812 18.44140625 C4.03707422 20.62763316 4.01913966 22.81382528 4 25 C0.7 25 -2.6 25 -6 25 C-6.33 19.06 -6.66 13.12 -7 7 C-6.01 7.495 -6.01 7.495 -5 8 C-5 12.95 -5 17.9 -5 23 C-2.69 23 -0.38 23 2 23 C1.85775413 20.47891897 1.71129879 17.95819597 1.5625 15.4375 C1.52318359 14.73302734 1.48386719 14.02855469 1.44335938 13.30273438 C1.17481721 8.8201459 0.69383803 4.43706503 0 0 Z " fill="#EDD984" transform="translate(556,189)"/>
<path d="M0 0 C0 4.62 0 9.24 0 14 C-5.61 14 -11.22 14 -17 14 C-17 10.04 -17 6.08 -17 2 C-14.34466727 0.67233364 -12.01973081 0.6633249 -9.0625 0.4375 C-7.47115234 0.31181641 -7.47115234 0.31181641 -5.84765625 0.18359375 C-3.90151754 0.05812253 -1.9501792 0 0 0 Z M-16 4 C-16 6.97 -16 9.94 -16 13 C-11.38 13 -6.76 13 -2 13 C-2 9.37 -2 5.74 -2 2 C-7.06562383 1.74671881 -11.15758367 2.66416101 -16 4 Z " fill="#DECC67" transform="translate(61,189)"/>
<path d="M0 0 C0 0.33 0 0.66 0 1 C-1.19238281 0.97679687 -2.38476562 0.95359375 -3.61328125 0.9296875 C-5.17968124 0.91092822 -6.746088 0.89272819 -8.3125 0.875 C-9.49102539 0.84986328 -9.49102539 0.84986328 -10.69335938 0.82421875 C-11.45068359 0.81777344 -12.20800781 0.81132812 -12.98828125 0.8046875 C-13.68477783 0.79421387 -14.38127441 0.78374023 -15.09887695 0.77294922 C-17.331173 0.89425405 -17.331173 0.89425405 -20 3 C-22.72729492 3.22705078 -22.72729492 3.22705078 -25.98046875 3.1953125 C-27.72553711 3.18564453 -27.72553711 3.18564453 -29.50585938 3.17578125 C-30.72080078 3.15902344 -31.93574219 3.14226562 -33.1875 3.125 C-34.41404297 3.11597656 -35.64058594 3.10695312 -36.90429688 3.09765625 C-39.93639295 3.07406017 -42.96809938 3.04113841 -46 3 C-46 2.67 -46 2.34 -46 2 C-30.63897444 -0.39591217 -15.49670828 -2.58278471 0 0 Z " fill="#544C29" transform="translate(132,171)"/>
<path d="M0 0 C0.99 0 1.98 0 3 0 C3 1.32 3 2.64 3 4 C4.98 4 6.96 4 9 4 C10.4783226 6.95664519 10.06032783 9.74229737 10 13 C9.01 13 8.02 13 7 13 C7 11.02 7 9.04 7 7 C5.68 7 4.36 7 3 7 C3 8.98 3 10.96 3 13 C2.01 13 1.02 13 0 13 C0 8.71 0 4.42 0 0 Z " fill="#787878" transform="translate(317,232)"/>
<path d="M0 0 C0.66 0 1.32 0 2 0 C2 2.64 2 5.28 2 8 C-3.93002267 8.37851209 -8.47239641 7.10575375 -14 5 C-14 4.67 -14 4.34 -14 4 C-4.625 0.875 -4.625 0.875 0 3 C0 2.01 0 1.02 0 0 Z " fill="#393627" transform="translate(197,159)"/>
<path d="M0 0 C0.99 0.103125 1.98 0.20625 3 0.3125 C5 3.3125 5 3.3125 4.9375 5.875 C4 8.3125 4 8.3125 1.6875 9.8125 C-1 10.3125 -1 10.3125 -3.3125 9.25 C-5 7.3125 -5 7.3125 -5.375 4.75 C-4.79696323 0.99276099 -3.72176816 0.38768418 0 0 Z " fill="#595959" transform="translate(455,235.6875)"/>
<path d="M0 0 C5.80058027 -0.09063407 11.26039225 0.16514796 17 1 C17 4.96 17 8.92 17 13 C11.39 13 5.78 13 0 13 C0 8.71 0 4.42 0 0 Z M1 1 C1 4.63 1 8.26 1 12 C5.62 12 10.24 12 15 12 C15 9.03 15 6.06 15 3 C13.02 3 11.04 3 9 3 C9 2.34 9 1.68 9 1 C6.36 1 3.72 1 1 1 Z " fill="#DAB94A" transform="translate(172,190)"/>
<path d="M0 0 C1.175625 0.0825 2.35125 0.165 3.5625 0.25 C5.5625 3.25 5.5625 3.25 5.375 5.8125 C4.5625 8.25 4.5625 8.25 1.5625 10.25 C-2.97804054 9.70945946 -2.97804054 9.70945946 -4.4375 8.25 C-4.5625 4.75 -4.5625 4.75 -4.4375 1.25 C-3.4375 0.25 -3.4375 0.25 0 0 Z M-0.4375 2.25 C-0.7675 3.57 -1.0975 4.89 -1.4375 6.25 C-0.1175 6.25 1.2025 6.25 2.5625 6.25 C2.5625 5.26 2.5625 4.27 2.5625 3.25 C1.5725 2.92 0.5825 2.59 -0.4375 2.25 Z " fill="#ECDB98" transform="translate(373.4375,235.75)"/>
<path d="M0 0 C1.9375 0.75 1.9375 0.75 4 2 C4.75 4.125 4.75 4.125 5 6 C0.27236684 10.08876382 -3.3349916 10.44213694 -9.51171875 10.43359375 C-12 10 -12 10 -15 7 C-9.39 7 -3.78 7 2 7 C2 5.68 2 4.36 2 3 C-1.96 3 -5.92 3 -10 3 C-9.67 2.34 -9.34 1.68 -9 1 C-7.700625 1.020625 -6.40125 1.04125 -5.0625 1.0625 C-3.70834367 1.08399454 -2.35243917 1.07148199 -1 1 C-0.67 0.67 -0.34 0.34 0 0 Z " fill="#E8D06C" transform="translate(441,204)"/>
<path d="M0 0 C0 2.64 0 5.28 0 8 C-2.64 8.66 -5.28 9.32 -8 10 C-8 9.01 -8 8.02 -8 7 C-6.68 6.67 -5.36 6.34 -4 6 C-3.67 4.68 -3.34 3.36 -3 2 C-3.99 2.66 -4.98 3.32 -6 4 C-7.32 4 -8.64 4 -10 4 C-10 3.01 -10 2.02 -10 1 C-12.64 1 -15.28 1 -18 1 C-18 0.67 -18 0.34 -18 0 C-14 0 -10 0 -6 0 C-5.319375 -0.185625 -4.63875 -0.37125 -3.9375 -0.5625 C-2 -1 -2 -1 0 0 Z " fill="#EAD47E" transform="translate(470,187)"/>
<path d="M0 0 C-4.83578917 3.22385945 -10.40836703 4.43976077 -15.9375 6.125 C-17.13052734 6.49753906 -18.32355469 6.87007813 -19.55273438 7.25390625 C-20.69935547 7.60582031 -21.84597656 7.95773437 -23.02734375 8.3203125 C-24.07656006 8.64273926 -25.12577637 8.96516602 -26.20678711 9.29736328 C-29 10 -29 10 -33 10 C-33 9.34 -33 8.68 -33 8 C-31.02 8 -29.04 8 -27 8 C-27 7.34 -27 6.68 -27 6 C-23.77901446 5.00222102 -20.55686988 4.00870781 -17.33203125 3.0234375 C-15.49205828 2.45828754 -13.65383529 1.88689052 -11.82421875 1.2890625 C-7.80603541 0.01432848 -4.20006277 -0.17143113 0 0 Z " fill="#B9956C" transform="translate(172,283)"/>
<path d="M0 0 C0.66 0 1.32 0 2 0 C2.33 1.65 2.66 3.3 3 5 C3.66 5 4.32 5 5 5 C5.33 3.35 5.66 1.7 6 0 C6.99 0 7.98 0 9 0 C9 2.97 9 5.94 9 9 C2.25 10.125 2.25 10.125 0 9 C0 6.03 0 3.06 0 0 Z " fill="#E9D68B" transform="translate(380,236)"/>
<path d="M0 0 C2.97 0 5.94 0 9 0 C6.125 4.875 6.125 4.875 5 6 C6.32 6.33 7.64 6.66 9 7 C8.67 7.99 8.34 8.98 8 10 C5.36 9.67 2.72 9.34 0 9 C1.875 4.125 1.875 4.125 3 3 C2.01 2.67 1.02 2.34 0 2 C0 1.34 0 0.68 0 0 Z " fill="#5B5C5C" transform="translate(346,236)"/>
<path d="M0 0 C3.3 0 6.6 0 10 0 C10 0.99 10 1.98 10 3 C8.68 3 7.36 3 6 3 C6 5.97 6 8.94 6 12 C5.01 12 4.02 12 3 12 C3 8.7 3 5.4 3 2 C2.01 2 1.02 2 0 2 C0 1.34 0 0.68 0 0 Z " fill="#E2D392" transform="translate(359,233)"/>
<path d="M0 0 C4.20862321 0.4766425 8.41684309 0.95675944 12.625 1.4375 C14.40970703 1.63956055 14.40970703 1.63956055 16.23046875 1.84570312 C17.38417969 1.97783203 18.53789062 2.10996094 19.7265625 2.24609375 C20.78439941 2.36654053 21.84223633 2.4869873 22.93212891 2.61108398 C25.97130938 2.99636287 28.98194465 3.47589471 32 4 C32 4.33 32 4.66 32 5 C29.89590361 5.02701408 27.79170822 5.04640223 25.6875 5.0625 C24.51574219 5.07410156 23.34398437 5.08570313 22.13671875 5.09765625 C19 5 19 5 16 4 C13.43365139 3.77281504 10.88321893 3.58391816 8.3125 3.4375 C7.61060547 3.39431641 6.90871094 3.35113281 6.18554688 3.30664062 C4.45724794 3.2008264 2.7286489 3.09993419 1 3 C0.67 2.01 0.34 1.02 0 0 Z " fill="#473D18" transform="translate(134,172)"/>
<path d="M0 0 C1.65 0 3.3 0 5 0 C5 3.63 5 7.26 5 11 C3.68 11 2.36 11 1 11 C-0.28317892 7.15046324 -0.06643637 4.05261865 0 0 Z " fill="#FBE458" transform="translate(30,168)"/>
<path d="M0 0 C-0.33 0.66 -0.66 1.32 -1 2 C-2.85546875 2.34375 -2.85546875 2.34375 -5.1875 2.5 C-8.02484037 2.69334517 -10.15257893 3.05666618 -12.83984375 4.0546875 C-16.60517982 5.1810303 -19.47490296 4.99293368 -23.375 4.625 C-24.62023437 4.51414062 -25.86546875 4.40328125 -27.1484375 4.2890625 C-28.08945313 4.19367188 -29.03046875 4.09828125 -30 4 C-30 3.67 -30 3.34 -30 3 C-26.12577792 2.49384729 -22.25051183 1.99617279 -18.375 1.5 C-17.28058594 1.35691406 -16.18617188 1.21382813 -15.05859375 1.06640625 C-13.99511719 0.93105469 -12.93164062 0.79570312 -11.8359375 0.65625 C-10.37486572 0.46772461 -10.37486572 0.46772461 -8.88427734 0.27539062 C-5.90510895 -0.00906019 -2.99084203 -0.04655007 0 0 Z " fill="#E6D9B6" transform="translate(158,255)"/>
<path d="M0 0 C3.3 0 6.6 0 10 0 C10 0.66 10 1.32 10 2 C8.68 2 7.36 2 6 2 C6 5.3 6 8.6 6 12 C5.01 12 4.02 12 3 12 C3 8.7 3 5.4 3 2 C2.01 2 1.02 2 0 2 C0 1.34 0 0.68 0 0 Z " fill="#545454" transform="translate(416,233)"/>
<path d="M0 0 C1.98 0.495 1.98 0.495 4 1 C4.79953138 4.28696233 5.09658936 5.71023192 4 9 C5.65 9.33 7.3 9.66 9 10 C9 10.33 9 10.66 9 11 C6.69 11 4.38 11 2 11 C2 10.34 2 9.68 2 9 C1.34 8.67 0.68 8.34 0 8 C-1.27536232 2.55072464 -1.27536232 2.55072464 0 0 Z " fill="#E8BE28" transform="translate(488,201)"/>
<path d="M0 0 C4.03349832 -0.17163823 7.45208284 0.02099431 11.375 1 C16.0114221 2.13317029 20.23820052 2.15116824 25 2 C22.32101201 4.67898799 20.7677214 4.65747987 17 5 C13.97988664 4.79307543 10.99551673 4.43268575 8 4 C8 3.34 8 2.68 8 2 C5.36 2 2.72 2 0 2 C0 1.34 0 0.68 0 0 Z " fill="#B0895C" transform="translate(96,277)"/>
<path d="M0 0 C2.31 0 4.62 0 7 0 C6.67 0.66 6.34 1.32 6 2 C4.95550089 5.13349732 5.06576355 5.98968256 6 9 C4.1875 9.625 4.1875 9.625 2 10 C1.01 9.34 0.02 8.68 -1 8 C-0.67 5.36 -0.34 2.72 0 0 Z " fill="#6D6D6D" transform="translate(433,236)"/>
<path d="M0 0 C2.97 0 5.94 0 9 0 C9 0.33 9 0.66 9 1 C6.36 1 3.72 1 1 1 C1 2.65 1 4.3 1 6 C6.1693489 5.59443869 6.1693489 5.59443869 11 4 C10.125 7.875 10.125 7.875 9 9 C7.1875 9.1328125 7.1875 9.1328125 5 9.125 C4.278125 9.12757813 3.55625 9.13015625 2.8125 9.1328125 C1 9 1 9 0 8 C-0.14115161 5.32941149 -0.04247107 2.67567762 0 0 Z " fill="#EFD678" transform="translate(397,186)"/>
<path d="M0 0 C0 0.66 0 1.32 0 2 C-0.66 2.66 -1.32 3.32 -2 4 C-1.01 4.33 -0.02 4.66 1 5 C1 4.34 1 3.68 1 3 C1.99 2.67 2.98 2.34 4 2 C4.66 3.65 5.32 5.3 6 7 C4.68 7 3.36 7 2 7 C0.9790625 7.309375 0.9790625 7.309375 -0.0625 7.625 C-2 8 -2 8 -5 6 C-5.1875 3.375 -5.1875 3.375 -5 1 C-2 0 -2 0 0 0 Z " fill="#595959" transform="translate(406,238)"/>
<path d="M0 0 C1.79158489 -0.02696365 3.58328473 -0.04637917 5.375 -0.0625 C6.37273437 -0.07410156 7.37046875 -0.08570313 8.3984375 -0.09765625 C11 0 11 0 13 1 C13 3.64 13 6.28 13 9 C8.71 8.67 4.42 8.34 0 8 C0 5.36 0 2.72 0 0 Z M1 1 C1 2.98 1 4.96 1 7 C3.97 7 6.94 7 10 7 C10.38218767 5.34385343 10.71395102 3.67542976 11 2 C9.99163938 0.76732652 9.99163938 0.76732652 7.93359375 0.90234375 C6.69802734 0.91974609 6.69802734 0.91974609 5.4375 0.9375 C4.19806641 0.95103516 4.19806641 0.95103516 2.93359375 0.96484375 C1.97646484 0.98224609 1.97646484 0.98224609 1 1 Z " fill="#F3DB7E" transform="translate(397,199)"/>
<path d="M0 0 C0.33 0.66 0.66 1.32 1 2 C0.319375 2.99 0.319375 2.99 -0.375 4 C-2.65240946 8.20444824 -2.73448404 12.28480271 -3 17 C-1.68 17.66 -0.36 18.32 1 19 C1 19.99 1 20.98 1 22 C-2 21 -2 21 -3.75 18 C-5.46812718 13.58195868 -5.2866394 9.52863208 -4 5 C-1.9375 1.9375 -1.9375 1.9375 0 0 Z " fill="#EBD686" transform="translate(425,189)"/>
<path d="M0 0 C0 0.66 0 1.32 0 2 C-7.58617827 5.79308914 -19.63857804 4.13782564 -28 4 C-28 3.67 -28 3.34 -28 3 C-24.08384244 2.49595781 -20.1669977 1.99746767 -16.25 1.5 C-14.58324219 1.28537109 -14.58324219 1.28537109 -12.8828125 1.06640625 C-11.27792969 0.86337891 -11.27792969 0.86337891 -9.640625 0.65625 C-8.65610352 0.53056641 -7.67158203 0.40488281 -6.65722656 0.27539062 C-4 0 -4 0 0 0 Z " fill="#514A25" transform="translate(68,176)"/>
<path d="M0 0 C2.0625 0.4375 2.0625 0.4375 4 1 C4.66 3.31 5.32 5.62 6 8 C-0.75 8.125 -0.75 8.125 -3 7 C-1.125 1.125 -1.125 1.125 0 0 Z M1 5 C0.67 5.66 0.34 6.32 0 7 C0.99 6.67 1.98 6.34 3 6 C2.34 5.67 1.68 5.34 1 5 Z " fill="#696969" transform="translate(304,233)"/>
<path d="M0 0 C0.33 0.99 0.66 1.98 1 3 C1.66 3 2.32 3 3 3 C3 2.34 3 1.68 3 1 C6.63 1 10.26 1 14 1 C13.67 2.98 13.34 4.96 13 7 C7.34605369 7.34615998 3.96993194 6.43425238 -1 4 C-0.67 2.68 -0.34 1.36 0 0 Z M6 2 C6.33 3.32 6.66 4.64 7 6 C8.98 5.67 10.96 5.34 13 5 C13 4.01 13 3.02 13 2 C10.69 2 8.38 2 6 2 Z " fill="#F1D46C" transform="translate(504,201)"/>
<path d="M0 0 C0.99 0 1.98 0 3 0 C3 5.61 3 11.22 3 17 C4.65 17 6.3 17 8 17 C8 12.05 8 7.1 8 2 C8.33 2 8.66 2 9 2 C9 7.28 9 12.56 9 18 C6.69 18 4.38 18 2 18 C1.93941406 16.95199219 1.87882813 15.90398437 1.81640625 14.82421875 C1.73198262 13.44529952 1.64733553 12.06639395 1.5625 10.6875 C1.52318359 9.99720703 1.48386719 9.30691406 1.44335938 8.59570312 C1.25072585 5.52838465 0.97677283 2.93031848 0 0 Z " fill="#E3BD38" transform="translate(549,194)"/>
<path d="M0 0 C0.33 2.31 0.66 4.62 1 7 C-0.32 7.33 -1.64 7.66 -3 8 C-2.67 7.34 -2.34 6.68 -2 6 C-2 5.34 -2 4.68 -2 4 C-2.99 3.67 -3.98 3.34 -5 3 C-7.69433317 4.87197454 -7.69433317 4.87197454 -10 7 C-10 5.02 -10 3.04 -10 1 C-6.78548731 -0.60725635 -3.56387464 -0.05748185 0 0 Z " fill="#EBCD62" transform="translate(439,191)"/>
<path d="M0 0 C1.65 0 3.3 0 5 0 C5 0.99 5 1.98 5 3 C6.258125 2.938125 7.51625 2.87625 8.8125 2.8125 C11.62065146 2.67439419 12.59025178 2.64839787 14.76171875 4.51171875 C15.17035156 5.00285156 15.57898438 5.49398437 16 6 C15.05898437 5.9278125 14.11796875 5.855625 13.1484375 5.78125 C11.28058594 5.64203125 11.28058594 5.64203125 9.375 5.5 C7.53035156 5.36078125 7.53035156 5.36078125 5.6484375 5.21875 C2.41962143 5.02515931 -0.76678675 4.96020661 -4 5 C-3.34 4.360625 -2.68 3.72125 -2 3.0625 C0.11602431 1.35917681 0.11602431 1.35917681 0 0 Z " fill="#494731" transform="translate(110,146)"/>
<path d="M0 0 C2.64 0.33 5.28 0.66 8 1 C8 1.33 8 1.66 8 2 C6.02 2 4.04 2 2 2 C2.25620684 3.6065676 2.53055871 5.2102483 2.8125 6.8125 C2.96332031 7.70582031 3.11414062 8.59914063 3.26953125 9.51953125 C4.05395393 12.18321256 4.88627799 13.25690322 7 15 C4.69 14.34 2.38 13.68 0 13 C0 8.71 0 4.42 0 0 Z " fill="#D2B99C" transform="translate(29,262)"/>
<path d="M0 0 C3 3 3 3 4 5 C4 7.64 4 10.28 4 13 C-1.61 13 -7.22 13 -13 13 C-13.33 13.66 -13.66 14.32 -14 15 C-14 14.01 -14 13.02 -14 12 C-9.05 11.67 -4.1 11.34 1 11 C0.67 7.37 0.34 3.74 0 0 Z " fill="#F1D884" transform="translate(444,190)"/>
<path d="M0 0 C3.63 0 7.26 0 11 0 C5.375 7.75 5.375 7.75 2 10 C2 8.68 2 7.36 2 6 C2.66 6 3.32 6 4 6 C4 4.68 4 3.36 4 2 C2.35 2 0.7 2 -1 2 C-0.67 1.34 -0.34 0.68 0 0 Z " fill="#E9D177" transform="translate(489,187)"/>
<path d="M0 0 C4.29 0 8.58 0 13 0 C9.69756694 3.30243306 5.55028914 2.64997776 1 3 C1 6.96 1 10.92 1 15 C1.66 15.33 2.32 15.66 3 16 C2.01 16 1.02 16 0 16 C0 10.72 0 5.44 0 0 Z " fill="#DFCB61" transform="translate(78,187)"/>
<path d="M0 0 C9.44363607 0.54537716 18.65438032 1.53708385 28 3 C28 3.66 28 4.32 28 5 C25.54126232 4.85941524 23.08314825 4.71277001 20.625 4.5625 C19.57699219 4.50352539 19.57699219 4.50352539 18.5078125 4.44335938 C13.2265625 4.11328125 13.2265625 4.11328125 11 3 C9.12943209 2.7724985 7.25314042 2.59037189 5.375 2.4375 C4.37210938 2.35371094 3.36921875 2.26992187 2.3359375 2.18359375 C1.56507813 2.12300781 0.79421875 2.06242188 0 2 C0 1.34 0 0.68 0 0 Z " fill="#483B16" transform="translate(168,177)"/>
<path d="M0 0 C5.61 0.33 11.22 0.66 17 1 C17 1.66 17 2.32 17 3 C18.98 3 20.96 3 23 3 C23.33 3.66 23.66 4.32 24 5 C15.81911794 4.4533512 7.98214061 2.82876132 0 1 C0 0.67 0 0.34 0 0 Z " fill="#55451A" transform="translate(136,154)"/>
<path d="M0 0 C2.10448938 0.14109986 4.2085877 0.28804175 6.3125 0.4375 C7.48425781 0.51871094 8.65601562 0.59992188 9.86328125 0.68359375 C13 1 13 1 16 2 C16.33 2.66 16.66 3.32 17 4 C18.64363134 4.72159424 20.31050386 5.39351421 22 6 C18.60738958 7.13087014 17.83482243 6.86514295 14.55078125 5.78515625 C13.70322266 5.51123047 12.85566406 5.23730469 11.98242188 4.95507812 C11.10134766 4.66052734 10.22027344 4.36597656 9.3125 4.0625 C8.41982422 3.77181641 7.52714844 3.48113281 6.60742188 3.18164062 C4.40223052 2.46230013 2.20006742 1.73483328 0 1 C0 0.67 0 0.34 0 0 Z " fill="#C5A683" transform="translate(91,293)"/>
<path d="M0 0 C0.33 1.32 0.66 2.64 1 4 C-1.10251861 4.67184618 -3.20707763 5.33730968 -5.3125 6 C-7.07013672 6.556875 -7.07013672 6.556875 -8.86328125 7.125 C-12 8 -12 8 -15 8 C-15 7.34 -15 6.68 -15 6 C-5.77448747 1.40774487 -5.77448747 1.40774487 0 2 C0 1.34 0 0.68 0 0 Z " fill="#AC8658" transform="translate(198,272)"/>
<path d="M0 0 C2.64 0.33 5.28 0.66 8 1 C8 1.66 8 2.32 8 3 C9.093125 3.103125 10.18625 3.20625 11.3125 3.3125 C14.85559629 3.97307727 15.93243723 4.2027092 18 7 C13.54856736 6.35731596 9.41118353 5.29333357 5.125 3.9375 C3.97257812 3.57527344 2.82015625 3.21304687 1.6328125 2.83984375 C0.76398438 2.56269531 -0.10484375 2.28554688 -1 2 C-0.67 1.34 -0.34 0.68 0 0 Z " fill="#C6A989" transform="translate(72,286)"/>
<path d="M0 0 C4 3 4 3 4.42578125 4.97265625 C4.11111111 10.77777778 4.11111111 10.77777778 3 13 C2.34 13 1.68 13 1 13 C1.66 14.32 2.32 15.64 3 17 C1.68 17 0.36 17 -1 17 C-1.33 15.68 -1.66 14.36 -2 13 C-0.68 12.67 0.64 12.34 2 12 C1.34 8.04 0.68 4.08 0 0 Z " fill="#E5CC6B" transform="translate(413,181)"/>
<path d="M0 0 C8.24430867 0.47912816 16.00044527 1.97785501 24 4 C24 4.33 24 4.66 24 5 C21.34297371 4.766579 18.68679533 4.52715665 16.03125 4.27734375 C14.15779063 4.10593187 12.28283946 3.94923713 10.40625 3.81640625 C9.6328125 3.75324219 8.859375 3.69007813 8.0625 3.625 C7.37285156 3.57601562 6.68320313 3.52703125 5.97265625 3.4765625 C3.46487996 2.87072347 1.96014462 1.64003151 0 0 Z " fill="#CFAF3E" transform="translate(168,162)"/>
<path d="M0 0 C1.98 0 3.96 0 6 0 C6 0.99 6 1.98 6 3 C5.01 3.495 5.01 3.495 4 4 C3.34444881 6.52733235 3.34444881 6.52733235 3 9 C2.01 9 1.02 9 0 9 C0 6.03 0 3.06 0 0 Z " fill="#E5D689" transform="translate(390,236)"/>
<path d="M0 0 C1.98 0 3.96 0 6 0 C6 0.99 6 1.98 6 3 C5.01 3 4.02 3 3 3 C3 4.98 3 6.96 3 9 C2.01 9 1.02 9 0 9 C0 6.03 0 3.06 0 0 Z " fill="#606060" transform="translate(426,236)"/>
<path d="M0 0 C0 0.33 0 0.66 0 1 C-3.10311638 1.67161995 -6.20765168 2.33643675 -9.3125 3 C-10.63411133 3.28617188 -10.63411133 3.28617188 -11.98242188 3.578125 C-12.82998047 3.75859375 -13.67753906 3.9390625 -14.55078125 4.125 C-15.33106689 4.29257813 -16.11135254 4.46015625 -16.9152832 4.6328125 C-19 5 -19 5 -22 5 C-22 4.01 -22 3.02 -22 2 C-7.40318907 -0.29612756 -7.40318907 -0.29612756 0 0 Z " fill="#5D522D" transform="translate(52,163)"/>
<path d="M0 0 C2.375 -0.1875 2.375 -0.1875 5 0 C7 3 7 3 6.625 5.6875 C6.41875 6.450625 6.2125 7.21375 6 8 C4.68 8.33 3.36 8.66 2 9 C2.66 7.02 3.32 5.04 4 3 C2.68 2.67 1.36 2.34 0 2 C0 1.34 0 0.68 0 0 Z " fill="#E8D387" transform="translate(372,236)"/>
<path d="M0 0 C0.66 0.33 1.32 0.66 2 1 C3.00376838 5.0150735 3.40779739 7.16667491 1.5625 10.9375 C0.7890625 11.9584375 0.7890625 11.9584375 0 13 C-0.99 12.67 -1.98 12.34 -3 12 C-1.125 6.25 -1.125 6.25 0 4 C0 2.68 0 1.36 0 0 Z " fill="#EBD06D" transform="translate(416,198)"/>
<path d="M0 0 C-3.68226271 2.1827846 -7.59810785 2.8558404 -11.75 3.625 C-12.79607422 3.82609375 -12.79607422 3.82609375 -13.86328125 4.03125 C-15.57451932 4.35943264 -17.28713171 4.68043502 -19 5 C-19 4.34 -19 3.68 -19 3 C-12.47059106 0.04328652 -7.12600133 -0.35368021 0 0 Z " fill="#4C4325" transform="translate(82,156)"/>
<path d="M0 0 C-1.13179687 0.27714844 -2.26359375 0.55429688 -3.4296875 0.83984375 C-4.91148902 1.20560488 -6.39325818 1.57149711 -7.875 1.9375 C-8.99455078 2.21110352 -8.99455078 2.21110352 -10.13671875 2.49023438 C-14.17039125 3.45209692 -14.17039125 3.45209692 -18 5 C-19.67654729 4.72057545 -21.34608154 4.39171753 -23 4 C-19.37916722 1.88476861 -15.56642157 1.11394037 -11.5 0.3125 C-10.83613281 0.17005859 -10.17226563 0.02761719 -9.48828125 -0.11914062 C-6.05007229 -0.80884122 -3.32903523 -1.26537309 0 0 Z " fill="#DAC85E" transform="translate(56,164)"/>
<path d="M0 0 C-0.99 0 -1.98 0 -3 0 C-3.33 0.99 -3.66 1.98 -4 3 C-8.29 3 -12.58 3 -17 3 C-14.08149788 1.05433192 -12.42377152 0.4847543 -9.0625 -0.1875 C-8.20785156 -0.36667969 -7.35320312 -0.54585938 -6.47265625 -0.73046875 C-3.98865141 -1.00123705 -2.35550498 -0.77059444 0 0 Z " fill="#AA8051" transform="translate(139,276)"/>
<path d="M0 0 C0.66 0 1.32 0 2 0 C2 3.96 2 7.92 2 12 C0.68 12.33 -0.64 12.66 -2 13 C-2 12.01 -2 11.02 -2 10 C-1.34 10 -0.68 10 0 10 C0 6.7 0 3.4 0 0 Z " fill="#434343" transform="translate(333,236)"/>
<path d="M0 0 C1.66611905 -0.042721 3.33382885 -0.04063832 5 0 C6 1 6 1 6.09765625 2.84765625 C6.06510417 4.8984375 6.03255208 6.94921875 6 9 C5.01 8.67 4.02 8.34 3 8 C3.33 7.01 3.66 6.02 4 5 C2.68 4.67 1.36 4.34 0 4 C1.32 4 2.64 4 4 4 C4 3.34 4 2.68 4 2 C2.35 2 0.7 2 -1 2 C-0.67 1.34 -0.34 0.68 0 0 Z " fill="#202020" transform="translate(339,236)"/>
<path d="M0 0 C2.31 0 4.62 0 7 0 C6.01 0.66 5.02 1.32 4 2 C10.93 2.495 10.93 2.495 18 3 C18 3.33 18 3.66 18 4 C12.39 4 6.78 4 1 4 C0.67 2.68 0.34 1.36 0 0 Z " fill="#E2BD3F" transform="translate(429,198)"/>
<path d="M0 0 C0 0.66 0 1.32 0 2 C-0.52078125 1.85691406 -1.0415625 1.71382812 -1.578125 1.56640625 C-4.61636346 0.85585048 -7.66453687 0.40031947 -10.75 -0.0625 C-11.92046875 -0.23910156 -13.0909375 -0.41570312 -14.296875 -0.59765625 C-15.18890625 -0.73042969 -16.0809375 -0.86320313 -17 -1 C-17 -1.33 -17 -1.66 -17 -2 C-11.29521276 -3.60447141 -5.11241098 -3.19525686 0 0 Z " fill="#EAD688" transform="translate(525,189)"/>
<path d="M0 0 C0 0.66 0 1.32 0 2 C-2.64 2 -5.28 2 -8 2 C-8 2.66 -8 3.32 -8 4 C-11.3 4 -14.6 4 -18 4 C-14.7004476 2.3502238 -12.51857306 1.55082348 -9 0.875 C-7.7315625 0.62363281 -7.7315625 0.62363281 -6.4375 0.3671875 C-4 0 -4 0 0 0 Z " fill="#D5C25B" transform="translate(92,155)"/>
<path d="M0 0 C0.66 0 1.32 0 2 0 C2 0.66 2 1.32 2 2 C4.64 2 7.28 2 10 2 C10.33 1.34 10.66 0.68 11 0 C11.33 1.32 11.66 2.64 12 4 C8.37 4 4.74 4 1 4 C0.67 2.68 0.34 1.36 0 0 Z " fill="#EED984" transform="translate(488,210)"/>
<path d="M0 0 C-2 2 -2 2 -4.8203125 2.1953125 C-5.91085937 2.17210937 -7.00140625 2.14890625 -8.125 2.125 C-9.22070312 2.10695312 -10.31640625 2.08890625 -11.4453125 2.0703125 C-12.28835938 2.04710937 -13.13140625 2.02390625 -14 2 C-14 1.34 -14 0.68 -14 0 C-8.40693931 -2.05459372 -5.59306069 -2.05459372 0 0 Z " fill="#E9D077" transform="translate(556,188)"/>
<path d="M0 0 C-5.71735105 2.45029331 -9.79029227 3.33266291 -16 3 C-13.2403139 1.16020927 -11.70258118 0.51676779 -8.5625 -0.1875 C-7.41974609 -0.45626953 -7.41974609 -0.45626953 -6.25390625 -0.73046875 C-3.87041504 -1.0154963 -2.26895796 -0.72875415 0 0 Z " fill="#D7C45B" transform="translate(73,160)"/>
<path d="M0 0 C0.99 0 1.98 0 3 0 C3 2.97 3 5.94 3 9 C2.01 9 1.02 9 0 9 C0 6.03 0 3.06 0 0 Z " fill="#757575" transform="translate(328,236)"/>
<path d="M0 0 C4.67692308 1.47692308 4.67692308 1.47692308 6.3125 4.125 C6.539375 4.74375 6.76625 5.3625 7 6 C4.625 6.125 4.625 6.125 2 6 C1.34 5.34 0.68 4.68 0 4 C0 2.68 0 1.36 0 0 Z " fill="#E8BF24" transform="translate(503,205)"/>
<path d="M0 0 C3 1 3 1 5 4 C4.625 6.1875 4.625 6.1875 4 8 C1.525 7.01 1.525 7.01 -1 6 C-0.67 4.02 -0.34 2.04 0 0 Z " fill="#EAC44E" transform="translate(493,204)"/>
<path d="M0 0 C2.31 0.33 4.62 0.66 7 1 C7 3.31 7 5.62 7 8 C6.01 8 5.02 8 4 8 C4 5.69 4 3.38 4 1 C2.68 0.67 1.36 0.34 0 0 Z " fill="#414141" transform="translate(320,237)"/>
<path d="M0 0 C0.66 0 1.32 0 2 0 C2 4.29 2 8.58 2 13 C1.34 13 0.68 13 0 13 C0 8.71 0 4.42 0 0 Z " fill="#2A2A2A" transform="translate(461,232)"/>
<path d="M0 0 C0.94875 0.04125 1.8975 0.0825 2.875 0.125 C2.545 1.445 2.215 2.765 1.875 4.125 C0.699375 4.0321875 0.699375 4.0321875 -0.5 3.9375 C-1.799375 4.0303125 -1.799375 4.0303125 -3.125 4.125 C-3.785 5.115 -4.445 6.105 -5.125 7.125 C-5.25 4.75 -5.25 4.75 -5.125 2.125 C-3.125 0.125 -3.125 0.125 0 0 Z " fill="#808080" transform="translate(455.125,235.875)"/>
<path d="M0 0 C1.9375 0.75 1.9375 0.75 4 2 C4.75 4.125 4.75 4.125 5 6 C4.01 6.495 4.01 6.495 3 7 C3 5.68 3 4.36 3 3 C-1.29 3 -5.58 3 -10 3 C-9.67 2.34 -9.34 1.68 -9 1 C-7.700625 1.020625 -6.40125 1.04125 -5.0625 1.0625 C-3.70834367 1.08399454 -2.35243917 1.07148199 -1 1 C-0.67 0.67 -0.34 0.34 0 0 Z " fill="#F1DE91" transform="translate(441,204)"/>
<path d="M0 0 C-0.33 0.99 -0.66 1.98 -1 3 C-3.97 3 -6.94 3 -10 3 C-10 2.34 -10 1.68 -10 1 C-6.59437148 0.22157062 -3.49234244 -0.09978121 0 0 Z " fill="#E9CC66" transform="translate(516,211)"/>
<path d="M0 0 C1.2065625 0.0309375 1.2065625 0.0309375 2.4375 0.0625 C1.7775 0.7225 1.1175 1.3825 0.4375 2.0625 C-0.21017793 4.63311311 -0.21017793 4.63311311 -0.5625 7.0625 C-2.2125 7.0625 -3.8625 7.0625 -5.5625 7.0625 C-4.5725 6.7325 -3.5825 6.4025 -2.5625 6.0625 C-2.8409375 4.8559375 -2.8409375 4.8559375 -3.125 3.625 C-3.269375 2.779375 -3.41375 1.93375 -3.5625 1.0625 C-2.5625 0.0625 -2.5625 0.0625 0 0 Z " fill="#EABE35" transform="translate(480.5625,204.9375)"/>
<path d="M0 0 C-0.99 0 -1.98 0 -3 0 C-3 1.65 -3 3.3 -3 5 C-1.35 5 0.3 5 2 5 C1.01 5.66 0.02 6.32 -1 7 C-1.99 6.67 -2.98 6.34 -4 6 C-5.1875 2.9375 -5.1875 2.9375 -6 0 C-3.50907189 -1.24546405 -2.58919267 -0.7767578 0 0 Z " fill="#EDDA97" transform="translate(508,189)"/>
<path d="M0 0 C0.99 0 1.98 0 3 0 C2.1875 1.9375 2.1875 1.9375 1 4 C0.01 4.33 -0.98 4.66 -2 5 C-2 5.66 -2 6.32 -2 7 C-3.32 6.67 -4.64 6.34 -6 6 C-5.01 6 -4.02 6 -3 6 C-2.87625 5.38125 -2.7525 4.7625 -2.625 4.125 C-2 2 -2 2 0 0 Z " fill="#E8CA51" transform="translate(487,189)"/>
<path d="M0 0 C1.79258558 0.08693141 3.58415144 0.19510504 5.375 0.3125 C6.87160156 0.39951172 6.87160156 0.39951172 8.3984375 0.48828125 C9.25695313 0.65714844 10.11546875 0.82601563 11 1 C11.66 1.99 12.32 2.98 13 4 C8.428721 3.45144652 4.32564205 2.58255197 0 1 C0 0.67 0 0.34 0 0 Z " fill="#CAA986" transform="translate(41,278)"/>
<path d="M0 0 C2.97 0 5.94 0 9 0 C8.34 1.32 7.68 2.64 7 4 C4.69 3.34 2.38 2.68 0 2 C0 1.34 0 0.68 0 0 Z " fill="#525452" transform="translate(346,236)"/>
<path d="M0 0 C3.63 0 7.26 0 11 0 C11 0.99 11 1.98 11 3 C11.99 3.33 12.98 3.66 14 4 C9.31261335 3.09276387 4.65806256 2.0452733 0 1 C0 0.67 0 0.34 0 0 Z " fill="#D3AF37" transform="translate(133,186)"/>
<path d="M0 0 C1.98 0 3.96 0 6 0 C6 1.32 6 2.64 6 4 C3.03 3.505 3.03 3.505 0 3 C0 2.01 0 1.02 0 0 Z " fill="#E7C020" transform="translate(390,181)"/>
<path d="M0 0 C3.96 0.33 7.92 0.66 12 1 C12 1.33 12 1.66 12 2 C8.37 2.33 4.74 2.66 1 3 C0.67 2.01 0.34 1.02 0 0 Z " fill="#51441A" transform="translate(134,172)"/>
<path d="M0 0 C7.75 -0.125 7.75 -0.125 10 1 C10 1.66 10 2.32 10 3 C3.375 2.25 3.375 2.25 0 0 Z " fill="#C8AA8A" transform="translate(54,282)"/>
<path d="M0 0 C0.33 0.66 0.66 1.32 1 2 C3.64 2 6.28 2 9 2 C8.67 2.99 8.34 3.98 8 5 C8 4.34 8 3.68 8 3 C6.02 3 4.04 3 2 3 C2 3.66 2 4.32 2 5 C1.01 5 0.02 5 -1 5 C-0.67 3.35 -0.34 1.7 0 0 Z " fill="#A0A0A0" transform="translate(300,240)"/>
<path d="M0 0 C2.72426311 2.35277269 3.8141763 4.62496331 5 8 C2.00470711 7.00156904 0.84159673 6.48615558 -1 4 C-0.6875 1.8125 -0.6875 1.8125 0 0 Z " fill="#ECD471" transform="translate(490,197)"/>
<path d="M0 0 C2.69082872 0.17635452 5.32851446 0.61835921 8 1 C8 1.66 8 2.32 8 3 C4.625 3.125 4.625 3.125 1 3 C0.34 2.34 -0.32 1.68 -1 1 C-0.67 0.67 -0.34 0.34 0 0 Z " fill="#BC9B75" transform="translate(72,286)"/>
<path d="M0 0 C2.64 0 5.28 0 8 0 C7.67 0.66 7.34 1.32 7 2 C4.35139573 2.59355614 1.70802678 2.74209269 -1 3 C-0.67 2.01 -0.34 1.02 0 0 Z " fill="#D4BD53" transform="translate(46,190)"/>
<path d="M0 0 C-3.26545761 1.88391785 -6.28111761 2.49287967 -10 3 C-10 2.34 -10 1.68 -10 1 C-6.78548731 -0.60725635 -3.56387464 -0.05748185 0 0 Z " fill="#C4A67A" transform="translate(193,277)"/>
<path d="M0 0 C0.99 0.33 1.98 0.66 3 1 C3 3.31 3 5.62 3 8 C2.01 7.34 1.02 6.68 0 6 C-0.1875 2.875 -0.1875 2.875 0 0 Z " fill="#050505" transform="translate(437,237)"/>
<path d="M0 0 C1.65 0.99 3.3 1.98 5 3 C4.67 3.66 4.34 4.32 4 5 C3.01 5 2.02 5 1 5 C0.67 5.66 0.34 6.32 0 7 C-1.125 2.25 -1.125 2.25 0 0 Z " fill="#A3A3A3" transform="translate(406,236)"/>
<path d="M0 0 C2.97 0 5.94 0 9 0 C7.515 1.485 7.515 1.485 6 3 C4.02 2.34 2.04 1.68 0 1 C0 0.67 0 0.34 0 0 Z " fill="#E4BD38" transform="translate(398,207)"/>
<path d="M0 0 C0.33 0.66 0.66 1.32 1 2 C0.34 2 -0.32 2 -1 2 C-0.34 3.32 0.32 4.64 1 6 C-0.32 6 -1.64 6 -3 6 C-3.33 4.68 -3.66 3.36 -4 2 C-2.68 1.34 -1.36 0.68 0 0 Z " fill="#ECD469" transform="translate(415,192)"/>
<path d="M0 0 C6.52307692 -0.36923077 6.52307692 -0.36923077 8.9375 1.5 C9.288125 1.995 9.63875 2.49 10 3 C2.25 2.25 2.25 2.25 0 0 Z " fill="#4F4319" transform="translate(116,149)"/>
<path d="M0 0 C0.99 0 1.98 0 3 0 C3 0.99 3 1.98 3 3 C2.01 3 1.02 3 0 3 C0 2.01 0 1.02 0 0 Z " fill="#9E9E9E" transform="translate(328,232)"/>
<path d="M0 0 C0.99 0.33 1.98 0.66 3 1 C3 1.66 3 2.32 3 3 C2.01 3 1.02 3 0 3 C0 2.01 0 1.02 0 0 Z " fill="#888888" transform="translate(333,232)"/>
</svg>
