<svg width="1321" height="980" viewBox="0 0 1321 980" fill="none" xmlns="http://www.w3.org/2000/svg">
<g filter="url(#filter0_d_218_127)">
<path d="M400.614 511.773C397.585 496.003 406.037 480.163 419.911 476.58C440.026 471.382 441.753 452.943 439.208 438.121L427.818 378.799C419.972 337.987 439.148 285.9 479.983 275.399C496.251 271.219 512.973 275.89 516.911 296.437C520.001 312.558 511.277 328.469 497.675 331.981C480.226 336.477 475.076 353.3 477.893 368.017L488.89 425.266C497.584 470.539 477.742 522.415 437.512 532.811C435.452 533.338 433.089 533.97 430.938 534.146C417.033 537.728 403.583 527.543 400.584 511.773H400.614Z" fill="white"/>
<path d="M577.614 867.773C574.585 852.003 583.037 836.163 596.911 832.58C617.026 827.382 618.753 808.943 616.208 794.121L604.818 734.799C596.972 693.987 616.148 641.9 656.983 631.399C673.251 627.219 689.973 631.89 693.911 652.437C697.001 668.558 688.277 684.469 674.675 687.981C657.226 692.477 652.076 709.3 654.893 724.017L665.89 781.266C674.584 826.539 654.742 878.415 614.512 888.811C612.452 889.338 610.089 889.97 607.938 890.146C594.033 893.728 580.583 883.543 577.584 867.773H577.614Z" fill="white"/>
<path d="M264.614 531.773C261.585 516.003 270.037 500.163 283.911 496.58C304.026 491.382 305.753 472.943 303.208 458.121L291.818 398.799C283.972 357.987 303.148 305.9 343.983 295.399C360.251 291.219 376.973 295.89 380.911 316.437C384.001 332.558 375.277 348.469 361.675 351.981C344.226 356.477 339.076 373.3 341.893 388.017L352.89 445.266C361.584 490.539 341.742 542.415 301.512 552.811C299.452 553.338 297.089 553.97 294.938 554.146C281.033 557.728 267.583 547.543 264.584 531.773H264.614Z" fill="white"/>
<path d="M674.442 435.959H598.405L584.773 467.92C580.229 478.808 571.443 485.833 561.446 485.833C546.3 485.833 536 470.73 536 455.627C536 452.817 536.606 450.008 537.212 447.198C551.753 411.373 605.372 285.986 614.763 263.508C619.004 253.673 628.698 247 638.089 247C647.48 247 656.871 254.024 661.112 263.859C660.81 263.508 734.12 443.686 733.817 443.334C735.635 447.549 736.24 451.764 736.24 456.33C736.24 470.73 726.244 485.481 710.794 485.481C701.1 485.481 692.315 479.159 687.771 468.271C687.771 468.271 682.318 455.276 674.442 435.959ZM636.272 345.694C631.122 357.987 625.669 371.333 619.913 384.329H652.024L636.272 345.694Z" fill="white"/>
<path d="M736.216 351.774C737.801 364.771 820.164 427.904 820.164 427.904L827.778 437.116C827.831 449.098 764.728 543.028 766.311 543.028C767.894 543.028 772.778 566.005 794.821 572.738C801.173 573.577 797.683 585.663 808.771 565.238C819.532 562.724 914.557 355.371 918.368 344.346C922.179 333.322 943.176 298.11 933.901 284.855C926.268 274.181 918.368 271.929 918.368 271.929C918.368 271.929 908.746 267.588 904.112 271.929C904.112 271.929 851.843 379.626 850.259 383.34C848.674 387.054 846.658 389.704 835.698 377.697C812.25 358.147 824.554 373.14 762.837 314.564C741.584 313.498 734.631 338.776 736.216 351.774Z" fill="white"/>
<path d="M1022.21 313C1079.77 313 1126.42 367.44 1126.42 434.172C1126.42 500.905 1079.77 554.994 1022.21 554.994C964.652 554.994 918 500.905 918 434.172C918 367.44 964.652 313 1022.21 313ZM1022.21 499.851C1051.59 499.851 1075.53 468.241 1075.53 434.172C1075.53 400.104 1051.59 369.898 1022.21 369.898C992.825 369.898 968.893 400.104 968.893 434.172C968.893 468.241 992.825 499.851 1022.21 499.851Z" fill="white"/>
<path d="M313.335 851.965C313.335 851.965 271.076 852.668 268.804 852.668V880.52C268.804 896.184 258.322 909.074 245.265 909.074C232.209 909.074 222 896.184 222 880.52V702.554C222 687.241 232.784 674 245.265 674H303.126C344.538 674 381.435 709.509 381.435 763.141C381.435 788.218 373.498 812.242 359.321 829.311L357.322 831.419L377.164 863.45C380.284 868.332 381.708 874.584 381.708 880.52C381.708 894.463 372.923 909.074 359.018 909.074C351.929 909.074 344.841 905.246 340.024 897.941L313.366 851.965H313.335ZM304.823 801.108C322.423 801.108 334.601 787.164 334.601 761.771C334.601 741.576 318.727 729.739 303.126 729.739H268.804V801.143H304.823V801.108Z" fill="white"/>
<path d="M436.144 950.481C422.814 950.481 411.303 937.837 411 922.383V740.098C411.303 724.644 422.814 712 436.144 712H540.96C554.895 712 565.8 724.644 565.8 740.8C565.8 756.957 554.895 768.898 540.96 768.898H461.287V802.967H511.272C525.207 802.967 536.415 815.26 536.415 831.065C536.415 846.87 525.207 858.461 511.272 858.461H461.287V893.583H543.989C557.318 893.583 568.829 905.876 568.829 922.032C568.829 938.188 557.318 950.833 543.686 950.833L436.144 950.481Z" fill="white"/>
<path d="M761.497 768.336L728.174 768.407C713.936 768.407 703 756.5 703 740.344C703 724.187 713.875 712.211 728.113 712.211L845.047 712C858.982 712 869.918 723.907 869.918 740.063C869.918 756.219 859.042 768.196 845.107 768.196L811.481 768.266L811.693 920.697C811.693 936.854 800.515 949.884 786.58 949.884C772.645 949.884 761.709 936.924 761.709 920.768L761.497 768.336Z" fill="white"/>
<path d="M1236.5 118C1193.55 135.119 1130.09 179.076 1126 242.5C1126.06 267.522 1128.83 281.031 1145 303C1169.79 337.791 1184.71 355.383 1212 385.5C1229.32 410.367 1227.76 430.92 1214 474C1202.45 509.118 1181.01 536.019 1135.5 587.5C1185.41 552.313 1214.38 533.751 1248.5 480C1256.28 465.475 1260.26 465.188 1269.5 421.5C1274.41 392.168 1271.53 375.216 1255.5 344C1243.22 320.457 1232.15 308.431 1207 288.5C1195.64 279.833 1189.16 274.55 1176.5 260.5C1166.2 245.901 1161.06 237.324 1166.5 213C1178.77 175.596 1193.02 154.77 1236.5 118Z" fill="white"/>
<path d="M1289 0C1264.66 10.7294 1253.41 19.7823 1238.5 42.5C1233.9 49.6718 1232.26 55.3327 1234.5 74.5C1239.13 90.9256 1245.54 101.276 1264.5 122C1282.33 140.293 1285.33 150.195 1283.5 167.5C1278.78 195.861 1263.54 212.097 1238.5 241C1271.01 218.991 1287.57 205.54 1303.5 172.5C1313.48 139.158 1307.77 126.151 1293.5 105C1285.5 94.2977 1279.41 89.2905 1267.5 81C1249.99 66.986 1249.24 56.9466 1258.5 36.5C1268.69 19.8168 1275.31 11.7309 1289 0Z" fill="white"/>
<path d="M122.5 454C79.5522 471.119 16.0858 515.076 12 578.5C12.0592 603.522 14.8286 617.031 30.9998 639C55.7926 673.791 70.7138 691.383 97.9998 721.5C115.319 746.367 113.755 766.92 99.9999 810C88.4489 845.118 67.0112 872.019 21.4998 923.5C71.4073 888.313 100.38 869.751 134.5 816C142.285 801.475 146.256 801.188 155.5 757.5C160.406 728.168 157.531 711.216 141.5 680C129.224 656.457 118.146 644.431 92.9998 624.5C81.6362 615.833 75.1647 610.55 62.4998 596.5C52.2014 581.901 47.0633 573.324 52.4998 549C64.7704 511.596 79.0152 490.77 122.5 454Z" fill="white"/>
<path d="M175 336C150.664 346.729 139.411 355.782 124.5 378.5C119.904 385.672 118.26 391.333 120.5 410.5C125.133 426.926 131.543 437.276 150.5 458C168.331 476.293 171.329 486.195 169.5 503.5C164.777 531.861 149.543 548.097 124.5 577C157.012 554.991 173.568 541.54 189.5 508.5C199.484 475.158 193.768 462.151 179.5 441C171.504 430.298 165.411 425.29 153.5 417C135.993 402.986 135.241 392.947 144.5 372.5C154.693 355.817 161.308 347.731 175 336Z" fill="white"/>
<path fill-rule="evenodd" clip-rule="evenodd" d="M1050.49 671.348C1079.14 659.165 1089.2 664.401 1096.21 696.339C1127.45 701.987 1133.79 712.004 1123.46 743.081C1145.2 764.482 1145.83 776.144 1123.46 796.302C1132.46 826.775 1127.72 838.037 1096.21 844.433C1091.11 874.476 1083.35 883.881 1050.49 871.738C1028.48 897.481 1016.1 897.361 994.139 871.738C961.698 882.016 951.976 875.699 948.876 844.433C916.827 840.842 911.284 829.994 921.627 796.302C896.018 773.459 900.329 762.151 921.627 743.081C909.668 706.733 919.205 699.358 948.876 696.339C954.681 662.684 963.492 654.998 994.139 671.348C1016.15 646.77 1028.48 644.36 1050.49 671.348ZM1022.77 812.963C1044.62 813.829 1068.59 792.752 1077.27 750.949C1081.96 742.408 1086.05 743.081 1089.28 750.949C1092.51 758.816 1087.43 771.775 1087.43 771.775C1079.24 795.742 1070.27 805.696 1048.64 818.979C1045.4 822.682 1018.62 834.252 993.214 823.607C967.812 812.963 961.766 804.518 954.88 778.716C951.605 751.222 956.27 740.154 974.278 726.884C994.107 713.785 1005.12 713.059 1024.62 722.256C1037.87 731.952 1043.89 738.459 1044.94 757.428C1043.1 779.179 1032.01 789.361 1015.85 791.675C999.68 793.989 993.659 789.715 984.901 775.477C979.053 761.046 981.051 754.886 989.981 745.858C997.371 738.916 1004.76 735.214 1010.76 740.305C1016.77 745.395 1014.16 750.592 1004.76 752.8C995.356 755.811 993.613 759.508 996.447 769.461C1002.18 777.307 1006.17 778.818 1014.46 776.865C1041.71 767.147 1030.98 734.423 1004.76 729.198C979.037 730.769 972.391 739.902 967.812 763.907C967.812 801.393 1005.87 817.186 1022.77 812.963Z" fill="white"/>
</g>
<defs>
<filter id="filter0_d_218_127" x="0" y="0" width="1320.52" height="979.833" filterUnits="userSpaceOnUse" color-interpolation-filters="sRGB">
<feFlood flood-opacity="0" result="BackgroundImageFix"/>
<feColorMatrix in="SourceAlpha" type="matrix" values="0 0 0 0 0 0 0 0 0 0 0 0 0 0 0 0 0 0 127 0" result="hardAlpha"/>
<feOffset dy="17"/>
<feGaussianBlur stdDeviation="6"/>
<feComposite in2="hardAlpha" operator="out"/>
<feColorMatrix type="matrix" values="0 0 0 0 0 0 0 0 0 0 0 0 0 0 0 0 0 0 1 0"/>
<feBlend mode="normal" in2="BackgroundImageFix" result="effect1_dropShadow_218_127"/>
<feBlend mode="normal" in="SourceGraphic" in2="effect1_dropShadow_218_127" result="shape"/>
</filter>
</defs>
</svg>
