<svg width="1809" height="721" viewBox="0 0 1809 721" fill="none" xmlns="http://www.w3.org/2000/svg">
<path fill-rule="evenodd" clip-rule="evenodd" d="M1666.99 108.334C1704.39 101.047 1747.15 82.2902 1776.63 108.489C1806.89 135.382 1799.91 185.773 1802.02 228.341C1804.32 274.816 1822.42 332.835 1789.18 361.919C1755.91 391.037 1708.98 354.47 1666.99 346.494C1636.67 340.736 1603.37 345.441 1580.97 322.374C1558.1 298.819 1550.42 262.633 1552.26 228.341C1554 196.007 1569.11 167.142 1590.52 144.749C1611.4 122.905 1638.53 113.878 1666.99 108.334Z" fill="#C72926"/>
<path fill-rule="evenodd" clip-rule="evenodd" d="M241.879 86.5288C324.757 78.8688 403.85 155.705 431.233 234.303C454.324 300.583 354.648 353.628 359.331 423.658C364.836 505.973 488.849 563.49 458.375 640.154C428.876 714.363 321.394 726.511 241.879 719.133C168.118 712.289 109.014 660.756 62.1491 603.388C20.4945 552.397 -3.86571 489.355 0.503503 423.658C4.60499 361.987 48.5836 316.598 84.5645 266.344C132.76 199.029 159.44 94.1481 241.879 86.5288Z" fill="#C72926"/>
<path fill-rule="evenodd" clip-rule="evenodd" d="M1541.14 0.0019457C1559.9 -0.156123 1577.18 9.33238 1590.25 22.808C1603.13 36.0797 1611.14 53.5008 1611 72.0072C1610.86 90.3777 1602.2 107.197 1589.5 120.452C1576.5 134.022 1559.9 144.113 1541.14 144.929C1521.6 145.779 1501.94 138.968 1488.39 124.853C1475.05 110.966 1470.25 91.2591 1471.09 72.0072C1471.9 53.6393 1480.03 36.7966 1492.84 23.6288C1505.84 10.267 1522.52 0.158882 1541.14 0.0019457Z" fill="#C72926"/>
</svg>
